<svg width="1200" height="475" viewBox="0 0 1200 475" fill="none" xmlns="http://www.w3.org/2000/svg">
<rect y="41" width="1200" height="376" fill="#14A096"/>
<path d="M992.252 86.1713C992.225 86.5731 992.132 86.9812 992.111 87.4489C994.916 87.7787 997.721 88.1086 1000.53 88.4384C1000.49 88.7084 1000.45 88.9783 1000.41 89.2483C999.019 89.2481 997.626 89.1821 995.709 89.1662C996.399 90.1645 996.777 90.6604 997.161 91.2223C996.139 91.5864 995.373 91.8594 994.666 92.0602C995.28 94.3297 995.494 96.5709 996.522 98.3351C997.159 99.4714 998.993 100.693 1000.17 100.58C1004.03 100.21 1007.9 99.2402 1011.74 98.6065C1012.84 98.434 1014.04 98.5189 1015.22 98.4719C1015.24 98.6696 1015.27 98.9333 1015.29 99.1311C1010.38 100.267 1005.53 101.396 1000.62 102.466C1000.73 102.921 1000.84 103.443 1000.95 103.898C1005.7 103.11 1010.45 102.389 1015.26 101.595C1015.28 101.859 1015.38 102.116 1015.4 102.38C1011.28 103.506 1007.16 104.567 1003.04 105.693C1003.15 106.149 1003.19 106.544 1003.3 106.999C1008.47 105.904 1013.65 104.809 1018.84 103.78C1018.93 104.103 1018.97 104.433 1019.06 104.756C1014.83 106.027 1010.52 107.304 1006.29 108.575C1006.4 109.096 1006.58 109.545 1006.69 110.066C1013.83 108.783 1021.04 107.494 1028.18 106.211C1028.2 106.408 1028.29 106.6 1028.3 106.732C1023.79 108.561 1019.27 110.391 1014.69 112.227C1017.12 113.391 1019 114.409 1020.99 115.215C1021.47 115.435 1022.25 115.228 1022.83 115.106C1024.06 114.855 1025.28 114.538 1026.7 114.202C1025.98 114.937 1025.38 115.527 1024.78 116.183C1024.94 116.5 1025.1 116.817 1025.27 117.134C1028.48 116.227 1031.7 115.32 1034.92 114.479C1035 114.671 1035.02 114.803 1035.1 114.994C1033.38 115.691 1031.67 116.453 1029.83 117.228C1031.39 118.277 1032.45 119.04 1033.87 120.035C1035.27 119.567 1037.26 118.912 1039.24 118.256C1039.32 118.381 1039.41 118.573 1039.48 118.698C1038.94 119.216 1038.33 119.74 1037.06 120.927C1040.39 120.607 1042.92 120.764 1045.16 120.083C1050.55 118.436 1055.9 116.327 1061.2 114.488C1061.78 114.3 1062.45 114.369 1063.1 114.306C1061.21 115.951 1059.19 116.942 1057.25 118.06C1055.43 119.033 1053.62 120.137 1051.81 121.176C1054.46 121.986 1056.65 122.109 1058.8 122.501C1062.97 123.233 1066.19 120.996 1069.59 119.338C1072.31 118.014 1075.01 116.624 1077.72 115.234C1077.88 115.551 1078.04 115.868 1078.21 116.185C1073.91 118.859 1069.67 121.526 1065.37 124.2C1065.46 124.458 1065.62 124.775 1065.71 125.032C1068.14 124.135 1070.56 123.237 1072.98 122.34C1073.06 122.465 1073.08 122.663 1073.16 122.789C1072.25 123.608 1071.39 124.355 1070.48 125.174C1070.72 125.551 1070.95 125.927 1071.12 126.31C1074.78 124.496 1078.43 122.682 1082.84 120.464C1081.03 122.234 1079.88 123.342 1078.74 124.515C1078.89 124.701 1079.04 124.886 1079.19 125.071C1086.07 121.019 1092.95 117.034 1099.76 112.988C1099.99 113.299 1100.15 113.616 1100.38 113.927C1095.26 117.743 1090.15 121.56 1085.03 125.376C1085.26 125.753 1085.57 126.189 1085.8 126.566C1088.68 124.893 1091.55 123.154 1094.43 121.482C1094.52 121.673 1094.66 121.792 1094.74 121.984C1093.35 123.249 1091.95 124.58 1090.56 125.844C1090.78 126.155 1091.01 126.466 1091.31 126.77C1095.27 124.062 1099.31 121.413 1103.28 118.705C1103.43 118.89 1103.58 119.141 1103.67 119.332C1101.17 121.501 1098.73 123.598 1096.23 125.766C1096.45 126.011 1096.67 126.19 1096.89 126.435C1098.94 125.773 1101.36 125.607 1103.04 124.449C1114.05 116.675 1124.99 108.907 1135.95 101.271C1137.5 100.191 1138.91 99.0583 1140.38 97.919C1140.68 98.2895 1140.98 98.6599 1141.28 99.0303C1130.89 108.408 1120.5 117.852 1110.1 127.231C1110.19 127.422 1110.27 127.548 1110.29 127.745C1112.17 126.7 1113.99 125.727 1115.94 124.676C1116.2 125.382 1116.45 125.891 1116.8 126.789C1123.09 122.128 1129.19 117.552 1135.29 112.976C1135.44 113.161 1135.59 113.346 1135.74 113.532C1131.22 118.089 1126.71 122.712 1122.19 127.269C1122.42 127.58 1122.71 127.885 1122.94 128.195C1125.53 126.218 1128.1 124.175 1130.87 122.047C1130.52 123.212 1130.34 124.028 1130.08 124.85C1130.37 125.089 1130.65 125.261 1130.94 125.5C1136.52 120.309 1142.16 115.111 1147.74 109.92C1147.95 110.099 1148.11 110.35 1148.33 110.529C1144.46 114.958 1140.58 119.32 1136.71 123.749C1137.07 124.047 1137.43 124.345 1137.73 124.65C1154.41 109.214 1168.82 91.4682 1185.07 75.6747C1185.36 75.9133 1185.57 76.0922 1185.86 76.3308C1172.9 92.6739 1159.8 108.964 1146.63 125.26C1146.93 125.564 1147.21 125.803 1147.57 126.101C1154.13 119.419 1160.62 112.677 1167.17 105.995C1167.39 106.174 1167.54 106.359 1167.75 106.538C1164.06 111.35 1160.36 116.161 1156.65 120.907C1156.94 121.146 1157.22 121.384 1157.51 121.623C1165.2 114.366 1171.53 105.911 1177.91 97.3828C1178.19 97.6214 1178.48 97.86 1178.77 98.0986C1174.12 105.396 1169.47 112.694 1164.76 120.063C1165.18 120.355 1165.61 120.647 1166.03 120.939C1173.93 110.337 1181.76 99.7405 1189.66 89.138C1189.88 89.3169 1190.09 89.4299 1190.37 89.6026C1184.84 98.7144 1179.31 107.892 1173.84 116.998C1174.27 117.29 1174.68 117.516 1175.04 117.814C1183.31 107.575 1189.46 95.9432 1196.45 84.8289C1196.79 84.9953 1197.08 85.2339 1197.43 85.4003C1192.15 95.1524 1186.88 104.905 1181.6 114.591C1182.02 114.817 1182.44 115.043 1182.79 115.275C1192.98 98.9318 1203.16 82.5224 1213.35 66.179C1213.63 66.3517 1213.84 66.4647 1214.12 66.6374C1205.46 81.7034 1196.73 96.7757 1189.19 112.401C1189.54 112.633 1189.95 112.793 1190.3 113.025C1196.99 101.541 1203.75 90.0496 1210.51 78.5587C1210.79 78.7314 1211.06 78.8381 1211.34 79.0108C1209.63 82.5011 1207.92 85.9914 1206.27 89.4755C1204.62 92.9595 1202.91 96.3839 1201.53 99.9747C1200.26 103.289 1196.94 105.803 1196.64 109.557C1197.12 109.777 1197.54 110.003 1198.02 110.223C1205.69 95.8506 1213.36 81.4122 1221.02 66.9739C1221.37 67.1403 1221.71 67.3067 1222.12 67.4668C1216.64 79.8337 1211.15 92.1346 1205.66 104.436C1205.93 104.542 1206.21 104.715 1206.42 104.828C1207.07 103.968 1207.92 103.221 1208.43 102.308C1211.45 96.6296 1214.67 90.9327 1217.41 85.082C1221.31 76.8584 1225.07 68.5814 1228.56 60.1977C1230.18 56.3841 1231.37 52.3444 1232.37 48.2576C1233.56 43.4206 1233.93 38.3952 1235.4 33.7309C1236.86 29.0007 1236.45 26.0469 1232.14 24.4645C1224.75 21.8459 1217.09 19.7201 1209.54 17.45C1208.18 17.048 1206.74 17.186 1205.38 16.7841C1198.26 14.8718 1191.26 12.7492 1184.1 11.1068C1179.24 9.97636 1174.18 9.59606 1169.17 8.94581C1165.02 8.4118 1160.87 7.87778 1156.73 7.34375C1164.16 11.8206 1172.98 11.5075 1180.78 15.0835C1171.5 13.9777 1162.21 12.8719 1152.93 11.7661C1152.9 12.1679 1152.81 12.576 1152.77 12.9118C1155.07 13.4896 1157.38 14.1333 1159.68 14.7111C1159.64 14.981 1159.6 15.251 1159.49 15.5272C1152.6 14.5911 1145.71 13.6551 1138.75 12.7253C1138.64 12.9356 1138.53 13.1459 1138.48 13.3499C1139.41 14.0594 1140.34 14.7689 1141.91 16.0152C1137.54 15.2363 1133.85 14.6584 1130.23 14.0083C1130.19 14.2782 1130.15 14.5481 1130.11 14.8181C1131 15.198 1131.9 15.6438 1132.8 16.0237C1132.74 16.1618 1132.69 16.2999 1132.71 16.4977C1131.45 16.485 1130.13 16.4786 1128.88 16.4659C1128.78 16.874 1128.76 17.2757 1128.66 17.6179C1135.62 20.0104 1142.52 22.4092 1149.48 24.7358C1149.38 25.078 1149.22 25.4923 1149.12 25.8344C1142.66 23.8594 1136.2 21.8844 1129.73 19.9094C1129.7 20.2453 1129.61 20.7192 1129.53 21.2591C1127.4 20.3988 1125.41 19.5919 1123.35 18.7254C1123.18 19.0738 1122.95 19.4285 1122.79 19.8428C1124.89 21.0389 1126.92 22.2413 1129.01 23.3716C1128.9 23.5819 1128.79 23.8581 1128.75 24.0621C1125.07 22.9506 1121.41 21.9049 1117.73 20.7934C1117.63 21.0696 1117.6 21.4055 1117.49 21.6817C1119.09 22.5262 1120.62 23.377 1122.22 24.1556C1122.11 24.3659 1121.99 24.5762 1121.88 24.7865C1119.16 23.9827 1116.38 23.1851 1113.66 22.3813C1113.5 22.7297 1113.39 23.0059 1113.23 23.3543C1115.18 24.4312 1117.13 25.508 1119.08 26.5849C1119.03 26.723 1118.98 26.8611 1118.92 26.9992C1115.53 26.0603 1112.14 25.1214 1108.75 24.1826C1108.6 24.6628 1108.44 25.1431 1108.23 25.6296C1113.6 27.9749 1118.97 30.2543 1124.35 32.5996C1124.24 32.8758 1124.14 33.152 1124.1 33.4219C1117.49 31.3276 1110.95 29.293 1104.35 27.1987C1104.25 27.5408 1104.09 27.9551 1103.99 28.2972C1111.55 31.3647 1119.11 34.4322 1126.73 37.4934C1126.63 37.7696 1126.51 37.9799 1126.41 38.2561C1117.87 35.2827 1109.26 32.3156 1100.72 29.3422C1100.56 29.6906 1100.4 30.1049 1100.24 30.4533C1105.37 33.0874 1110.57 35.6492 1115.71 38.2833C1113.29 37.8499 1111.1 36.9959 1108.79 36.2863C1103.4 34.5405 1098.44 31.0244 1092.02 32.904C1093.17 33.9243 1094.19 34.8912 1095.27 35.7859C1092.98 35.3399 1090.88 34.1438 1088.74 33.8171C1086.99 33.5188 1085.9 29.6986 1083.41 32.6646C1082.7 32.2 1081.93 31.7416 1081.16 31.2833C1080.98 31.4339 1080.8 31.5846 1080.68 31.7949C1081.45 32.8528 1082.27 33.9044 1083.04 34.9623C1082.91 35.0407 1082.85 35.1129 1082.73 35.1914C1081.53 34.3752 1080.26 33.5652 1079.06 32.749C1078.88 32.9655 1078.71 33.248 1078.53 33.4646C1079.85 34.8019 1081.23 36.067 1082.54 37.4043C1079.62 36.5534 1077.57 33.025 1073.44 35.4824C1076.08 38.223 1078.65 40.9039 1081.21 43.5188C1080.8 44.0242 1080.38 44.4636 1079.97 44.9689C1076.92 42.1341 1073.88 39.3653 1070.84 36.5306C1070.72 36.6749 1070.53 36.7597 1070.41 36.9041C1072.57 39.4907 1074.74 42.0774 1076.83 44.6045C1076.71 44.7488 1076.52 44.8336 1076.4 44.978C1073.57 43.0535 1070.74 41.0632 1067.92 39.1387C1067.68 39.4275 1067.44 39.7162 1067.14 40.0113C1070.06 43.5899 1073.04 47.0964 1076.4 51.1648C1071.39 47.8527 1066.96 45.0179 1062.59 42.1108C1062.35 42.3995 1062.12 42.7542 1061.88 43.043C1063.64 44.8041 1065.39 46.5652 1067.21 48.32C1067.03 48.5366 1066.86 48.7532 1066.67 48.9038C1064.19 47.1458 1061.78 45.3815 1059.3 43.6234C1059 43.9185 1058.69 44.2135 1058.46 44.5682C1061.09 47.1109 1063.71 49.6537 1066.33 52.1965C1066.14 52.3472 1066.03 52.4915 1065.85 52.7081C1062.43 50.1087 1059.01 47.5094 1055.59 44.91C1055.36 45.1988 1055.06 45.5597 1054.82 45.8485C1058.94 50.2434 1063.13 54.632 1067.24 58.961C1067.12 59.1054 1067 59.2497 1066.82 59.4004C1061.28 55.3412 1055.67 51.2224 1050.13 47.1632C1049.83 47.5242 1049.54 47.8851 1049.24 48.1802C1051.31 50.5094 1053.31 52.845 1055.39 55.1743C1055.27 55.3187 1055.08 55.4034 1054.96 55.5478C1052.48 53.7897 1050.01 52.0976 1047.46 50.3458C1047.28 50.5624 1047.05 50.8512 1046.87 51.0677C1047.64 52.1916 1048.4 53.2494 1049.17 54.3733C1049.04 54.4517 1048.86 54.6024 1048.74 54.6808C1047.18 53.6323 1045.57 52.6559 1044.02 51.6074C1043.72 51.9683 1043.42 52.2633 1043.19 52.618C1054.65 65.4228 1068.39 75.814 1080.58 87.9503C1072.14 83.2379 1066.12 75.4999 1058.62 69.6325C1050.98 63.6458 1043.22 57.8035 1034.71 53.0315C1041.21 62.3203 1050.89 68.2444 1059.01 75.7817C1058.84 76.0642 1058.61 76.3529 1058.43 76.5695C1048.96 70.7584 1039.49 65.0133 1030.02 59.2022C1032.11 63.7915 1037.14 65.305 1039.89 69.232C1036.11 66.9999 1032.27 64.774 1028.49 62.5419C1028.19 62.9028 1027.97 63.3234 1027.67 63.6844C1031.46 66.6479 1035.31 69.6051 1039.1 72.6346C1038.98 72.7789 1038.87 72.9892 1038.75 73.1336C1034.18 70.2454 1029.61 67.3571 1025.04 64.4688C1024.75 64.8298 1024.52 65.2504 1024.23 65.6113C1028.64 68.9139 1033.05 72.2165 1037.47 75.585C1037.35 75.7953 1037.17 75.9459 1037.06 76.1562C1031.94 73.0545 1026.89 69.9464 1021.77 66.8447C1021.48 67.2716 1021.2 67.7643 1020.97 68.1849C1026.53 71.7764 1032.1 75.3679 1037.66 78.9594C1032.32 77.0096 1027.32 74.4289 1022.31 71.8482C1020.02 70.6709 1017.72 69.3617 1015.04 72.4125C1021.23 75.6776 1027.34 78.8171 1033.39 82.0288C1033.34 82.1669 1033.28 82.2391 1033.23 82.3772C1026.01 80.0757 1018.78 77.7082 1011.56 75.4067C1011.41 75.8869 1011.19 76.3734 1011.04 76.8537C1018.46 79.8678 1025.95 82.9415 1033.37 85.9556C1033.27 86.2318 1033.16 86.4421 1033.05 86.7183C1025.96 84.4043 1018.81 82.0965 1011.77 79.6443C1009.51 78.8625 1008.48 79.0946 1008.52 81.5524C1009.76 82.1646 1010.88 82.7235 1011.92 83.2886C1011.8 83.433 1011.76 83.637 1011.64 83.7814C1009.64 83.574 1007.64 83.4326 1005.64 83.2252C1005.61 83.627 1005.52 84.035 1005.49 84.4368C1008.2 85.1747 1010.92 85.9785 1013.64 86.7165C1013.59 86.9205 1013.61 87.1182 1013.55 87.2563C1006.33 86.9512 999.29 86.5612 992.252 86.1713ZM1211.3 48.2147C1211.07 47.904 1210.78 47.5995 1210.55 47.2887C1214.75 44.2255 1219 41.0901 1223.2 38.0269C1223.43 38.3377 1223.66 38.7144 1223.95 39.0189C1219.76 42.0821 1215.56 45.1453 1211.3 48.2147ZM1229.78 31.5426C1225.25 33.9057 1221.48 31.14 1217.53 29.8558C1221.54 30.4023 1225.63 31.0085 1229.78 31.5426ZM1213.67 32.354C1218.32 33.2396 1223.03 34.1849 1228.14 35.1585C1222.48 37.4305 1218.2 34.1154 1213.48 33.1042C1213.53 32.9001 1213.57 32.6302 1213.67 32.354ZM1220.66 37.672C1218.78 40.1139 1218.57 40.0668 1209.93 35.3073C1213.44 36.1018 1217.01 36.8901 1220.66 37.672ZM1198.26 36.2259C1204.22 37.7834 1210.19 39.4068 1216.35 41.0114C1215.46 42.7597 1214.34 43.4659 1212.28 42.5993C1207.6 40.5868 1202.79 38.7187 1198.12 36.7721C1198.1 36.6402 1198.15 36.4362 1198.26 36.2259ZM1211.31 44.222C1211.34 44.5516 1211.43 44.809 1211.47 45.1386C1210.51 45.4964 1209.4 46.3344 1208.72 46.0675C1203.59 44.2307 1198.5 42.1899 1193.63 39.5308C1199.52 41.0945 1205.42 42.6583 1211.31 44.222ZM1205.93 47.3322C1205.9 47.6681 1205.8 48.0102 1205.76 48.2801C1201.84 50.1192 1199.64 45.7401 1196.44 44.7825C1199.62 45.6083 1202.74 46.4404 1205.93 47.3322ZM1199.66 50.8597C1199.69 51.1234 1199.78 51.3808 1199.81 51.7104C1198.71 51.8829 1197.51 52.4635 1196.62 52.1495C1191.54 50.1747 1186.51 47.9958 1181.48 45.8168C1181.21 45.7101 1181.03 45.2612 1180.14 44.2159C1187.24 46.6618 1193.46 48.7937 1199.66 50.8597ZM1194.98 53.6372C1194.94 53.9731 1194.92 54.3749 1194.88 54.7107C1193.84 54.8111 1192.63 55.3257 1191.8 54.9396C1186.09 52.5597 1180.43 49.9758 1174.98 46.8395C1181.6 49.1316 1188.29 51.3514 1194.98 53.6372ZM1187.61 56.0064C1188.43 56.3267 1189.16 57.055 1189.88 57.5855C1187.87 57.3122 1185.81 57.243 1183.91 56.6276C1181.25 55.7515 1178.67 54.3356 1176.05 53.1897C1176.15 52.9134 1176.26 52.6372 1176.36 52.361C1177.73 52.8288 1179.09 53.2308 1180.46 53.6986C1182.91 54.4616 1185.28 55.099 1187.61 56.0064ZM1183.78 59.4337C1179.23 61.5992 1176.45 58.0739 1173.15 56.0615C1176.76 57.1793 1180.24 58.3097 1183.78 59.4337ZM1163.89 60.7407C1167.26 62.1473 1170.69 63.4817 1174.07 64.8883C1172.34 64.7876 1170.57 64.8911 1169 64.3761C1167.09 63.7607 1165.39 62.5269 1163.58 61.5694C1163.62 61.2994 1163.72 61.0232 1163.89 60.7407ZM1150.68 64.0699C1154.39 65.5769 1158.1 67.1499 1161.75 68.6632C1161.65 69.0053 1161.55 69.3474 1161.45 69.6896C1156.93 70.0564 1154.07 66.4055 1150.35 64.8326C1150.46 64.6223 1150.57 64.3461 1150.68 64.0699ZM1130.63 30.6007C1135.01 32.2428 1139.46 33.8786 1143.85 35.5866C1143.68 35.8691 1143.58 36.2112 1143.41 36.4937C1139.08 34.7135 1134.69 33.0055 1130.36 31.2253C1130.48 31.0809 1130.58 30.8047 1130.63 30.6007ZM1144.91 74.8672C1141.82 75.7615 1138.46 73.6895 1133.82 68.0798C1137.41 70.3307 1141.05 72.5095 1144.91 74.8672ZM1143.56 69.7412C1145.77 70.793 1148.05 71.8384 1150.95 73.1571C1146.58 75.1059 1145.4 71.7597 1143.56 69.7412ZM1155.78 73.8921C1155.75 73.5625 1155.71 73.167 1155.68 72.8374C1152.59 70.938 1149.44 69.1109 1146.35 67.2115C1146.47 67.0012 1146.58 66.7909 1146.69 66.5806C1149.59 67.8992 1152.84 68.7847 1155.34 70.6746C1158.18 72.7968 1160.55 72.0374 1163.13 70.7256C1164.14 70.1638 1165.22 69.7276 1166.67 68.9901C1162.68 66.6449 1159.04 64.5321 1155.4 62.4192C1155.51 62.143 1155.69 61.9265 1155.79 61.6502C1160.07 63.5685 1164.41 65.4146 1168.69 67.3329C1168.73 67.7944 1168.72 68.328 1168.76 68.7894C1170.68 67.4744 1172.61 66.2253 1174.46 64.9165L1174.41 64.9887C1175.58 64.8099 1176.74 64.5652 1177.91 64.3864C1177.89 64.1227 1177.93 63.8528 1177.9 63.5891C1176.45 62.8639 1174.93 62.1449 1173.47 61.4197C1173.43 61.0242 1173.45 60.5565 1173.41 60.161C1180.04 64.5153 1185.43 62.8679 1190.08 57.6326L1190.02 57.7048C1191.73 57.0081 1193.52 56.3711 1195.16 55.5489C1199.82 53.1731 1204.4 50.6719 1209.49 47.9886C1204.49 57.8475 1133.8 85.1116 1117.72 83.393C1131.02 80.1236 1143.4 77.0078 1155.78 73.8921ZM1121.34 81.1177C1119.57 80.5556 1117.48 78.8259 1114.54 74.2522C1116.95 76.6819 1119.15 78.9327 1121.34 81.1177ZM1100.61 86.7626C1098.8 84.3423 1096.99 82.0538 1095.19 79.7654C1097.48 81.6741 1101.59 82.478 1100.61 86.7626ZM1087.67 77.8248C1090.73 80.7914 1093.79 83.758 1096.91 86.7183C1096.61 87.0133 1096.37 87.3021 1096.07 87.5971C1093.07 84.5583 1090.07 81.5195 1087.07 78.4808C1087.32 78.2579 1087.49 78.0414 1087.67 77.8248ZM1082.74 80.0938C1085.81 82.5267 1088.88 84.8938 1092.02 87.3205C1091.78 87.6092 1091.61 87.8917 1091.37 88.1805C1088.48 85.5309 1085.52 82.9536 1082.63 80.3041C1082.61 80.1722 1082.68 80.1659 1082.74 80.0938ZM1036.41 83.8685C1038.79 85.2373 1041.23 86.5999 1043.6 87.9027C1043.37 88.2574 1043.14 88.6121 1042.91 88.9668C1040.58 87.4599 1038.2 85.9592 1035.88 84.5182C1036.12 84.2954 1036.23 84.0851 1036.41 83.8685Z" fill="white"/>
<path d="M991.957 313.485C992.058 313.084 992.097 312.656 992.225 312.192C995.068 312.762 997.912 313.331 1000.76 313.901C1000.8 313.625 1000.85 313.348 1000.9 313.072C999.541 312.631 998.16 312.253 996.284 311.659C997.275 310.904 997.801 310.54 998.355 310.113C997.473 309.433 996.812 308.923 996.185 308.502C997.506 306.481 998.428 304.362 999.992 302.966C1000.97 302.059 1003.15 301.449 1004.27 301.934C1007.92 303.522 1011.39 305.699 1014.93 307.536C1015.96 308.056 1017.15 308.354 1018.29 308.776C1018.38 308.589 1018.48 308.34 1018.57 308.153C1014.13 305.483 1009.76 302.841 1005.3 300.233C1005.55 299.824 1005.83 299.352 1006.08 298.943C1010.47 301.22 1014.88 303.434 1019.32 305.738C1019.43 305.489 1019.6 305.266 1019.71 305.017C1016.05 302.608 1012.36 300.262 1008.69 297.853C1008.94 297.443 1009.11 297.069 1009.36 296.66C1014.07 299.374 1018.77 302.089 1023.51 304.742C1023.71 304.457 1023.84 304.145 1024.04 303.86C1020.31 301.273 1016.51 298.659 1012.78 296.071C1013.06 295.599 1013.37 295.217 1013.65 294.745C1020.22 298.267 1026.84 301.817 1033.41 305.339C1033.49 305.152 1033.63 304.992 1033.69 304.867C1029.86 301.647 1026.03 298.426 1022.15 295.178C1024.88 294.811 1027.04 294.416 1029.24 294.261C1029.79 294.2 1030.48 294.648 1031 294.953C1032.13 295.589 1033.22 296.287 1034.5 297.067C1034.03 296.12 1033.63 295.352 1033.25 294.522C1033.51 294.264 1033.77 294.006 1034.03 293.748C1036.88 295.655 1039.73 297.562 1042.61 299.407C1042.75 299.247 1042.81 299.122 1042.95 298.962C1041.5 297.737 1040.07 296.449 1038.52 295.107C1040.37 294.577 1041.65 294.17 1043.35 293.648C1044.58 294.552 1046.3 295.823 1048.03 297.094C1048.15 296.997 1048.29 296.837 1048.41 296.739C1048.04 296.06 1047.61 295.354 1046.75 293.791C1049.9 295.164 1052.42 295.813 1054.39 297.192C1059.13 300.513 1063.68 304.271 1068.28 307.752C1068.78 308.119 1069.45 308.264 1070.07 308.533C1068.75 306.327 1067.09 304.717 1065.55 303.01C1064.08 301.481 1062.67 299.827 1061.23 298.236C1064.07 298.288 1066.25 298.865 1068.48 299.165C1072.78 299.774 1075.21 302.983 1078.01 305.683C1080.24 307.838 1082.44 310.056 1084.64 312.274C1084.9 312.016 1085.16 311.758 1085.42 311.5C1082.07 307.522 1078.78 303.572 1075.43 299.594C1075.6 299.372 1075.86 299.114 1076.03 298.892C1078.11 300.538 1080.19 302.185 1082.27 303.831C1082.39 303.733 1082.47 303.546 1082.59 303.448C1081.96 302.359 1081.36 301.358 1080.73 300.269C1081.08 299.975 1081.43 299.682 1081.71 299.362C1084.71 302.295 1087.7 305.228 1091.3 308.796C1090.1 306.492 1089.33 305.045 1088.58 303.536C1088.79 303.403 1088.99 303.27 1089.2 303.136C1094.63 309.278 1100.08 315.356 1105.44 321.471C1105.76 321.24 1106.02 320.982 1106.34 320.751C1102.56 315.399 1098.78 310.047 1095 304.695C1095.35 304.402 1095.79 304.073 1096.13 303.779C1098.41 306.327 1100.66 308.937 1102.94 311.485C1103.08 311.325 1103.26 311.254 1103.4 311.094C1102.44 309.415 1101.51 307.673 1100.54 305.994C1100.86 305.763 1101.19 305.532 1101.57 305.328C1104.58 309.233 1107.68 313.103 1110.7 317.008C1110.9 316.875 1111.13 316.679 1111.28 316.519C1109.52 313.607 1107.81 310.785 1106.06 307.873C1106.35 307.704 1106.62 307.598 1106.91 307.429C1108.7 308.727 1111.02 309.661 1112.28 311.323C1120.56 322.412 1128.78 333.475 1137.05 344.412C1138.22 345.958 1139.24 347.513 1140.31 349.094C1140.72 348.828 1141.13 348.561 1141.54 348.295C1134.38 335.835 1127.24 323.313 1120.07 310.854C1120.21 310.694 1120.33 310.596 1120.41 310.409C1121.91 312.027 1123.38 313.556 1124.95 315.201C1125.43 314.596 1125.84 314.178 1126.46 313.413C1131.12 319.962 1135.62 326.368 1140.13 332.774C1140.33 332.641 1140.54 332.508 1140.74 332.375C1137.78 326.49 1134.85 320.543 1131.89 314.658C1132.21 314.427 1132.59 314.223 1132.91 313.992C1134.81 316.744 1136.67 319.558 1138.7 322.515C1138.73 321.267 1138.8 320.411 1138.82 319.528C1139.18 319.386 1139.51 319.307 1139.86 319.165C1143.66 326.006 1147.52 332.875 1151.31 339.716C1151.58 339.609 1151.81 339.414 1152.08 339.308C1149.71 333.754 1147.31 328.264 1144.94 322.71C1145.39 322.533 1145.83 322.356 1146.22 322.152C1157.6 342.524 1166.03 364.431 1176.88 385.016C1177.23 384.874 1177.5 384.768 1177.86 384.626C1170.39 364.55 1162.78 344.482 1155.11 324.388C1155.49 324.184 1155.85 324.042 1156.29 323.865C1160.57 332.473 1164.76 341.117 1169.04 349.725C1169.31 349.619 1169.51 349.485 1169.78 349.379C1167.7 343.506 1165.61 337.632 1163.5 331.821C1163.86 331.679 1164.22 331.538 1164.57 331.396C1169.78 340.925 1173.26 351.19 1176.78 361.544C1177.14 361.402 1177.49 361.261 1177.85 361.119C1175.63 352.516 1173.41 343.913 1171.15 335.222C1171.66 335.071 1172.17 334.921 1172.67 334.771C1177.02 347.633 1181.3 360.468 1185.64 373.33C1185.91 373.224 1186.15 373.18 1186.47 373.101C1183.97 362.446 1181.49 351.729 1179.05 341.102C1179.55 340.952 1180.03 340.864 1180.48 340.687C1185.29 353.309 1187.6 366.621 1190.89 379.694C1191.28 379.642 1191.64 379.5 1192.03 379.447C1189.98 368.25 1187.93 357.053 1185.86 345.918C1186.34 345.83 1186.82 345.742 1187.24 345.628C1191.99 364.822 1196.71 384.079 1201.47 403.274C1201.8 403.195 1202.04 403.151 1202.37 403.072C1198.7 385.61 1194.97 368.121 1192.57 350.466C1192.98 350.352 1193.44 350.326 1193.85 350.211C1196.74 363.551 1199.68 376.918 1202.63 390.284C1202.96 390.205 1203.26 390.188 1203.59 390.109C1203.02 386.157 1202.46 382.205 1201.96 378.279C1201.46 374.354 1200.87 370.465 1200.67 366.522C1200.49 362.884 1198.04 359.372 1198.94 355.611C1199.48 355.55 1199.96 355.463 1200.5 355.402C1203.42 371.872 1206.32 388.404 1209.21 404.936C1209.6 404.884 1209.99 404.831 1210.44 404.806C1209.02 390.988 1207.57 377.233 1206.12 363.478C1206.42 363.461 1206.75 363.382 1206.99 363.338C1207.34 364.382 1207.94 365.383 1208.14 366.436C1209.29 372.94 1210.62 379.525 1211.44 386.108C1212.63 395.377 1213.68 404.654 1214.42 413.948C1214.78 418.185 1214.67 422.51 1214.34 426.816C1213.96 431.916 1212.73 436.942 1212.68 441.963C1212.61 447.046 1211.26 449.798 1206.55 449.972C1198.51 450.182 1190.35 449.821 1182.26 449.639C1180.8 449.599 1179.44 449.007 1177.99 448.967C1170.43 448.572 1162.92 448.418 1155.41 447.747C1150.3 447.305 1145.24 446.069 1140.14 445.11C1135.92 444.314 1131.71 443.518 1127.49 442.722C1136.16 440.712 1144.68 443.82 1153.43 442.81C1144.02 440.938 1134.6 439.067 1125.18 437.195C1125.28 436.794 1125.32 436.366 1125.39 436.028C1127.82 436.195 1130.28 436.3 1132.71 436.467C1132.76 436.19 1132.8 435.914 1132.79 435.611C1125.76 434.334 1118.74 433.058 1111.65 431.754C1111.61 431.514 1111.56 431.273 1111.58 431.059C1112.71 430.66 1113.84 430.262 1115.77 429.545C1111.26 428.918 1107.48 428.31 1103.73 427.791C1103.78 427.515 1103.82 427.239 1103.87 426.962C1104.86 426.876 1105.89 426.727 1106.88 426.641C1106.87 426.489 1106.86 426.337 1106.95 426.15C1105.72 425.764 1104.42 425.35 1103.19 424.963C1103.23 424.535 1103.33 424.134 1103.35 423.768C1110.91 423.646 1118.4 423.497 1125.94 423.437C1125.95 423.072 1125.93 422.617 1125.94 422.251C1119 422.125 1112.06 422 1105.13 421.874C1105.2 421.535 1105.27 421.045 1105.36 420.492C1103.01 420.655 1100.8 420.81 1098.51 421C1098.46 420.607 1098.35 420.188 1098.33 419.733C1100.76 419.231 1103.12 418.703 1105.52 418.263C1105.48 418.022 1105.46 417.719 1105.48 417.505C1101.54 417.423 1097.63 417.279 1093.69 417.197C1093.68 416.893 1093.75 416.555 1093.73 416.252C1095.56 415.935 1097.33 415.592 1099.14 415.339C1099.09 415.098 1099.05 414.857 1099.01 414.616C1096.1 414.537 1093.13 414.431 1090.22 414.351C1090.17 413.959 1090.15 413.656 1090.1 413.263C1092.35 412.832 1094.6 412.401 1096.85 411.971C1096.84 411.819 1096.83 411.667 1096.82 411.516C1093.21 411.354 1089.6 411.193 1085.99 411.032C1086 410.514 1086 409.997 1085.94 409.453C1091.94 408.872 1097.91 408.353 1103.9 407.772C1103.88 407.468 1103.87 407.165 1103.92 406.889C1096.8 406.834 1089.77 406.743 1082.66 406.688C1082.67 406.323 1082.65 405.868 1082.66 405.502C1091.01 404.91 1099.37 404.317 1107.78 403.751C1107.77 403.448 1107.72 403.207 1107.71 402.904C1098.43 403.093 1089.08 403.255 1079.8 403.444C1079.75 403.051 1079.73 402.596 1079.68 402.204C1085.53 401.265 1091.42 400.416 1097.28 399.478C1094.78 399.132 1092.36 399.269 1089.88 399.226C1084.07 399.219 1078.11 401.076 1072.43 397.199C1073.88 396.57 1075.18 395.949 1076.52 395.418C1074.14 395.126 1071.72 395.628 1069.52 395.265C1067.72 395.001 1065.44 398.384 1063.95 394.697C1063.11 394.927 1062.22 395.129 1061.32 395.332C1061.19 395.126 1061.06 394.921 1061.01 394.68C1062.09 393.889 1063.24 393.126 1064.32 392.335C1064.22 392.219 1064.18 392.129 1064.09 392.013C1062.66 392.428 1061.16 392.817 1059.73 393.232C1059.63 392.964 1059.55 392.634 1059.44 392.366C1061.15 391.479 1062.9 390.681 1064.61 389.794C1061.49 389.696 1058.36 392.488 1055.12 388.778C1058.56 386.942 1061.92 385.141 1065.26 383.402C1065.01 382.777 1064.74 382.214 1064.5 381.589C1060.63 383.389 1056.78 385.127 1052.9 386.926C1052.83 386.748 1052.68 386.605 1052.61 386.426C1055.54 384.588 1058.47 382.75 1061.32 380.948C1061.25 380.769 1061.09 380.626 1061.02 380.447C1057.65 381.428 1054.25 382.471 1050.88 383.452C1050.74 383.095 1050.6 382.738 1050.4 382.354C1054.39 379.787 1058.41 377.31 1062.99 374.407C1057.05 376.049 1051.82 377.408 1046.62 378.857C1046.49 378.5 1046.37 378.08 1046.23 377.723C1048.51 376.561 1050.78 375.399 1053.11 374.264C1053.01 373.996 1052.9 373.728 1052.77 373.523C1049.79 374.451 1046.87 375.406 1043.89 376.335C1043.69 375.951 1043.49 375.567 1043.38 375.147C1046.75 373.498 1050.11 371.848 1053.48 370.198C1053.35 369.993 1053.28 369.814 1053.18 369.547C1049.01 370.998 1044.85 372.449 1040.68 373.9C1040.54 373.543 1040.37 373.097 1040.23 372.74C1045.65 369.758 1051.13 366.803 1056.52 363.884C1056.45 363.706 1056.38 363.527 1056.25 363.322C1049.55 365.524 1042.76 367.762 1036.07 369.964C1035.89 369.518 1035.72 369.071 1035.52 368.687C1038.28 367.072 1040.98 365.429 1043.75 363.814C1043.68 363.635 1043.52 363.492 1043.45 363.314C1040.47 364.242 1037.52 365.108 1034.47 366.009C1034.37 365.741 1034.23 365.384 1034.13 365.116C1035.23 364.263 1036.31 363.473 1037.42 362.619C1037.32 362.503 1037.19 362.298 1037.09 362.182C1035.25 362.712 1033.36 363.152 1031.51 363.682C1031.34 363.236 1031.14 362.852 1031.02 362.433C1046.29 353.574 1063 347.796 1078.76 339.822C1069.02 341.74 1060.68 347.38 1051.5 350.726C1042.14 354.143 1032.71 357.381 1022.88 359.334C1032.18 352.332 1043.51 349.625 1053.84 344.846C1053.76 344.516 1053.62 344.159 1053.51 343.891C1042.42 346.554 1031.35 349.155 1020.26 351.818C1023.76 348.002 1029.15 348.124 1033.09 345.165C1028.69 346.143 1024.23 347.094 1019.83 348.072C1019.65 347.625 1019.57 347.143 1019.39 346.697C1024.03 345.006 1028.73 343.343 1033.39 341.59C1033.32 341.411 1033.28 341.17 1033.21 340.992C1027.83 342.359 1022.45 343.727 1017.07 345.095C1016.9 344.648 1016.81 344.166 1016.64 343.72C1022 341.898 1027.35 340.075 1032.74 338.19C1032.69 337.949 1032.56 337.744 1032.52 337.503C1026.54 338.905 1020.62 340.333 1014.63 341.735C1014.49 341.226 1014.37 340.655 1014.28 340.173C1020.85 338.434 1027.42 336.695 1033.99 334.956C1028.16 335.164 1022.46 336.093 1016.76 337.023C1014.14 337.444 1011.48 337.99 1009.83 334.16C1016.91 332.939 1023.88 331.817 1030.81 330.605C1030.8 330.453 1030.77 330.364 1030.76 330.212C1022.98 330.165 1015.17 330.179 1007.39 330.131C1007.39 329.614 1007.33 329.07 1007.34 328.553C1015.54 327.968 1023.83 327.349 1032.04 326.765C1032.02 326.461 1031.98 326.221 1031.96 325.917C1024.31 325.923 1016.59 325.902 1008.94 326.06C1006.49 326.107 1005.55 325.551 1006.37 323.164C1007.78 322.962 1009.04 322.77 1010.24 322.55C1010.17 322.371 1010.19 322.157 1010.12 321.979C1008.1 321.545 1006.11 321.05 1004.09 320.616C1004.19 320.215 1004.23 319.787 1004.33 319.386C1007.21 319.528 1010.12 319.607 1013.01 319.748C1013.03 319.534 1013.11 319.347 1013.1 319.196C1005.95 317.197 998.952 315.341 991.957 313.485ZM1193.76 420.161C1193.43 420.392 1193.05 420.596 1192.73 420.827C1195.85 425.152 1199.01 429.566 1202.14 433.89C1202.46 433.659 1202.81 433.366 1203.19 433.162C1200.07 428.837 1196.94 424.513 1193.76 420.161ZM1206.5 442.312C1202.83 438.565 1198.27 440.069 1194 440.066C1198.1 440.809 1202.28 441.515 1206.5 442.312ZM1191.03 436.402C1195.85 437.012 1200.75 437.588 1206.05 438.262C1201.25 434.245 1196.01 436.121 1191.09 435.608C1191.07 435.822 1191.02 436.099 1191.03 436.402ZM1199.54 433.429C1198.48 430.447 1198.27 430.429 1188.32 432.328C1192 432.668 1195.74 433.035 1199.54 433.429ZM1177.22 427.723C1183.53 428.097 1189.87 428.409 1196.4 428.801C1196.09 426.811 1195.22 425.766 1192.93 425.956C1187.72 426.432 1182.43 426.73 1177.25 427.144C1177.19 427.268 1177.17 427.482 1177.22 427.723ZM1192.5 424.064C1192.64 423.752 1192.81 423.53 1192.94 423.218C1192.12 422.565 1191.31 421.394 1190.55 421.437C1184.96 421.6 1179.35 421.977 1173.74 423.023C1179.99 423.37 1186.25 423.717 1192.5 424.064ZM1188.23 419.317C1188.31 418.978 1188.32 418.613 1188.37 418.336C1185.13 415.296 1181.58 418.871 1178.16 418.79C1181.53 418.996 1184.84 419.174 1188.23 419.317ZM1183.24 413.881C1183.35 413.632 1183.52 413.41 1183.65 413.098C1182.63 412.578 1181.64 411.63 1180.67 411.654C1175.09 411.969 1169.49 412.498 1163.88 413.026C1163.58 413.043 1163.27 413.426 1162.06 414.163C1169.78 414.032 1176.52 413.926 1183.24 413.881ZM1179.54 409.68C1179.62 409.341 1179.72 408.94 1179.79 408.602C1178.8 408.171 1177.79 407.285 1176.86 407.399C1170.53 407.908 1164.18 408.631 1157.86 409.96C1165.05 409.828 1172.29 409.785 1179.54 409.68ZM1173.1 405.025C1174.01 404.974 1174.95 404.495 1175.82 404.203C1173.77 403.832 1171.74 403.247 1169.68 403.242C1166.81 403.252 1163.84 403.814 1160.92 404.101C1160.94 404.404 1160.95 404.707 1160.97 405.01C1162.45 404.988 1163.9 405.027 1165.39 405.005C1168.02 405.038 1170.54 405.17 1173.1 405.025ZM1170.45 400.461C1166.7 396.902 1162.87 399.46 1159.01 400.377C1162.88 400.432 1166.64 400.433 1170.45 400.461ZM1151.45 392.865C1155.19 392.563 1158.96 392.351 1162.7 392.049C1160.98 391.598 1159.29 390.934 1157.59 390.938C1155.53 390.932 1153.48 391.596 1151.41 391.956C1151.36 392.232 1151.38 392.535 1151.45 392.865ZM1139.61 385.414C1143.71 385.122 1147.84 384.767 1151.88 384.448C1151.89 384.083 1151.9 383.717 1151.91 383.352C1147.61 381.556 1143.66 384.212 1139.53 384.566C1139.58 384.807 1139.59 385.111 1139.61 385.414ZM1109.4 411.719C1114.2 411.509 1119.06 411.326 1123.89 411.054C1123.81 410.724 1123.83 410.358 1123.75 410.028C1118.95 410.39 1114.12 410.662 1109.33 411.023C1109.4 411.202 1109.41 411.505 1109.4 411.719ZM1137.41 373.039C1134.68 371.186 1130.73 372.138 1124.43 376.143C1128.64 375.084 1132.89 374.115 1137.41 373.039ZM1134.46 377.615C1136.96 377.292 1139.51 376.995 1142.76 376.63C1139.12 373.338 1136.9 376.23 1134.46 377.615ZM1147.71 377.446C1147.57 377.757 1147.41 378.131 1147.27 378.443C1143.66 379.316 1140 380.1 1136.39 380.973C1136.43 381.214 1136.47 381.455 1136.51 381.696C1139.76 381.33 1143.22 381.5 1146.26 380.447C1149.71 379.279 1151.78 380.774 1153.89 382.875C1154.69 383.743 1155.6 384.512 1156.78 385.692C1152.14 386.714 1147.92 387.621 1143.7 388.528C1143.71 388.832 1143.82 389.099 1143.83 389.403C1148.62 388.889 1153.44 388.466 1158.23 387.952C1158.42 387.516 1158.57 386.99 1158.76 386.554C1160.22 388.448 1161.71 390.28 1163.1 392.148L1163.07 392.059C1164.15 392.606 1165.21 393.215 1166.3 393.762C1166.19 394.011 1166.15 394.288 1166.04 394.537C1164.38 394.782 1162.67 395 1161.02 395.246C1160.86 395.62 1160.73 396.083 1160.56 396.457C1168.42 394.312 1173.15 397.633 1176.03 404.222L1176 404.133C1177.45 405.358 1178.99 406.549 1180.33 407.872C1184.12 411.672 1187.8 415.57 1191.92 419.809C1190.17 408.594 1129.82 359.508 1113.58 356.075C1125.51 363.492 1136.61 370.469 1147.71 377.446ZM1116.38 359.445C1114.47 359.431 1111.89 360.458 1107.56 363.987C1110.69 362.381 1113.55 360.882 1116.38 359.445ZM1097.94 347.347C1095.4 349.133 1092.91 350.794 1090.42 352.454C1093.27 351.321 1097.53 351.841 1097.94 347.347ZM1082.46 351.96C1086.39 350.036 1090.32 348.111 1094.31 346.214C1094.11 345.83 1093.97 345.473 1093.77 345.089C1089.88 347.102 1085.98 349.116 1082.09 351.13C1082.26 351.425 1082.36 351.692 1082.46 351.96ZM1078.37 348.177C1082.14 346.778 1085.89 345.442 1089.72 344.07C1089.59 343.713 1089.51 343.383 1089.37 343.026C1085.7 344.692 1082 346.269 1078.33 347.936C1078.27 348.061 1078.33 348.088 1078.37 348.177ZM1034.34 329.767C1037.09 329.186 1039.91 328.632 1042.64 328.113C1042.53 327.694 1042.41 327.274 1042.3 326.855C1039.55 327.588 1036.75 328.294 1034.02 328.964C1034.19 329.259 1034.23 329.5 1034.34 329.767Z" fill="white"/>
</svg>