<svg width="131" height="45" viewBox="0 0 131 45" fill="none" xmlns="http://www.w3.org/2000/svg">
<g clip-path="url(#clip0)">
<path d="M7.8 10.2L4.9 19H10.7L7.8 10.2ZM10.3 25.8V25.3H12.6L12.7 25.2L10.8 19.5H4.7L3.1 24.1C2.8 25.1 2.8 25.2 2.9 25.2H5.1V25.7H0V25.2H2C2.2 25.2 2.3 25.1 2.6 24.1L8.7 6H9.2L15.9 25.1C15.9 25.1 16 25.2 16.1 25.2H18.3V25.7H10.3V25.8Z" fill="#14A096"/>
<path d="M38.3 25.7999H25.1C25 25.7999 25 25.6999 25.1 25.5999L34.9 7.0999L34.7 6.9999H31.1C27.7 6.9999 26.3 9.3999 26.3 12.4999H25.8V6.4999L26 6.3999H38.2C38.3 6.3999 38.3 6.4999 38.2 6.5999L28.4 25.0999C28.4 25.0999 28.4 25.1999 28.5 25.1999H32.9C36.3 25.1999 37.8 22.6999 37.8 19.5999H38.3V25.7999Z" fill="#14A096"/>
<path d="M61.3 6.9999C61.2 6.9999 61.2 6.9999 61.2 7.0999V20.0999C61.2 23.8999 59.3 26.2999 55.1 26.2999C51.3 26.2999 48.6 24.2999 48.6 20.1999V7.0999C48.5 6.9999 48.5 6.9999 48.4 6.9999H46.2V6.3999H53.9V6.9999H51.7C51.6 6.9999 51.5 6.9999 51.5 7.0999V20.1999C51.5 23.8999 52.9 25.4999 55.7 25.4999C59.1 25.4999 60.6 23.2999 60.6 20.0999V7.0999C60.6 6.9999 60.6 6.9999 60.5 6.9999H58.5V6.3999H63.5V6.9999H61.3Z" fill="#14A096"/>
<path d="M77.9 6.9999H76.3C76.2 6.9999 76.1 6.9999 76.1 7.0999V15.4999H78.3C80.8 15.4999 81.5 14.7999 81.5 11.2999C81.6 7.8999 80.3 6.9999 77.9 6.9999ZM86.2 26.2999C84.1 26.2999 82.3 24.8999 82.3 20.9999V19.1999C82.3 16.7999 80.7 15.9999 78.4 15.9999H76.2V25.1999C76.2 25.2999 76.3 25.2999 76.4 25.2999H79V25.7999H70.8V25.2999H73C73.1 25.2999 73.2 25.2999 73.2 25.1999V7.0999C73.2 6.9999 73.1 6.9999 73 6.9999H70.8V6.3999H78.6C82.4 6.3999 84.7 8.4999 84.7 11.1999C84.7 13.6999 82.3 15.6999 79.6 15.6999C83.5 15.6999 85.4 17.8999 85.4 20.9999V23.4999C85.4 24.8999 86 25.4999 87 25.4999C87.7 25.4999 88 25.3999 88.3 24.9999L88.6 25.3999C88 25.8999 87.3 26.2999 86.2 26.2999Z" fill="#14A096"/>
<path d="M99.9 4.8V4.3C103.8 3.4 103.5 0 105 0C105.5 0 105.9 0.4 105.9 0.9C105.9 1.9 104.9 3.6 99.9 4.8ZM108.5 25.8H94.1V25.3H96.3C96.4 25.3 96.5 25.3 96.5 25.2V7.1C96.5 7 96.4 7 96.3 7H94.1V6.4H107.2L107.3 6.5V11.7H106.8C106.8 9.2 105.6 7 102.4 7H99.7C99.5 7 99.5 7 99.5 7.1V15.6H100.3C102.4 15.6 103.5 14.4 103.5 12.5H104V19.3H103.5C103.5 17.4 102.4 16.2 100.3 16.2H99.5V25.2C99.5 25.3 99.6 25.3 99.7 25.3H102.5C106.7 25.3 108.1 22.9 108.1 20.1H108.6L108.5 25.8Z" fill="#14A096"/>
<path d="M130.5 25.7999H116.1V25.2999H118.3C118.4 25.2999 118.5 25.2999 118.5 25.1999V7.0999C118.5 6.9999 118.4 6.9999 118.3 6.9999H116.1V6.3999H129.2L129.3 6.4999V11.6999H128.8C128.8 9.1999 127.6 6.9999 124.4 6.9999H121.7C121.5 6.9999 121.5 6.9999 121.5 7.0999V15.5999H122.3C124.4 15.5999 125.5 14.3999 125.5 12.4999H126V19.2999H125.5C125.5 17.3999 124.4 16.1999 122.3 16.1999H121.5V25.1999C121.5 25.2999 121.6 25.2999 121.7 25.2999H124.5C128.7 25.2999 130.1 22.8999 130.1 20.0999H130.6L130.5 25.7999Z" fill="#14A096"/>
<path d="M44.7 44.6001C44.7 44.5001 44.5 44.2001 44.2 44.2001C43.7 44.2001 42.8 44.6001 42.1 44.6001C39.9 44.6001 38.3 42.5001 38.3 40.1001C38.3 37.7001 39.9 35.6001 42.1 35.6001C42.7 35.6001 43.4 35.9001 44 35.9001C44.3 35.9001 44.5 35.7001 44.6 35.6001H44.9V38.6001H44.6C44.6 37.4001 43.3 35.9001 42.2 35.9001C41.7 35.9001 41.4 36.0001 41 36.3001C40.5 36.9001 40.3 38.1001 40.3 40.1001C40.3 42.1001 40.5 43.3001 41 43.9001C41.3 44.3001 41.7 44.3001 42.2 44.3001C43.6 44.3001 44.8 42.7001 44.8 41.1001H45V44.5001H44.7V44.6001Z" fill="#14A096"/>
<path d="M51.3 37.9001L50.1 41.4001H52.4L51.3 37.9001ZM52.2 44.4001V44.1001H53.2L52.4 41.7001H50L49.3 43.6001C49.2 44.0001 49.2 44.1001 49.2 44.1001H50.2V44.4001H47.8V44.1001H48.7C48.8 44.1001 48.8 44.1001 49 43.6001L51.7 35.6001H52L55 44.1001H55.1H56.1V44.4001H52.2Z" fill="#14A096"/>
<path d="M65.5 36.0999L65.4 44.5999H65.1L60 36.2999V44.0999H61V44.3999H58.5V44.0999H59.5H59.6V36.1999H59.5H58.5V35.8999H61.4C61.5 35.8999 61.6 35.8999 61.6 36.0999L65 41.5999V36.1999H64.9H63.9V35.8999H66.4V36.1999H65.5V36.0999Z" fill="#14A096"/>
<path d="M76.4 36.0999L76.3 44.5999H76L70.8 36.2999V44.0999H71.8V44.3999H69.3V44.0999H70.3H70.4V36.1999H70.3H69.3V35.8999H72.2C72.3 35.8999 72.4 35.8999 72.4 36.0999L75.8 41.5999V36.1999H75.7H74.7V35.8999H77.2V36.1999H76.4V36.0999Z" fill="#14A096"/>
<path d="M87.2 44.3999H80.4V44.0999H81.4H81.5V36.1999H81.4H80.4V35.8999H86.6H86.7V38.5999H86.4C86.4 37.4999 85.8 36.1999 84.4 36.1999H83.3H83.2V39.8999H83.4C84.3 39.8999 84.8 39.0999 84.8 38.1999H85V41.7999H84.7C84.7 40.9999 84.3 40.0999 83.3 40.0999H83.1V43.9999H83.2H84.3C86.2 43.9999 86.9 42.5999 86.9 41.2999H87.2V44.3999Z" fill="#14A096"/>
<path d="M93.4 44.6001C92.6 44.6001 91.9 44.1001 91.5 44.1001C91.2 44.1001 90.9 44.3001 90.9 44.6001H90.6V41.6001H90.9C90.9 42.6001 91.9 44.4001 93.4 44.4001C94.7 44.4001 95.2 43.7001 95.2 42.9001C95.2 41.7001 94.5 41.6001 92.7 40.9001C91.6 40.5001 90.8 39.9001 90.8 38.4001C90.8 36.8001 91.9 35.6001 93 35.6001C93.8 35.6001 93.8 35.9001 94.4 35.9001C94.7 35.9001 94.8 35.7001 94.9 35.6001H95.2V38.0001H95C95 36.8001 94.2 35.9001 93.1 35.9001C92.2 35.9001 91.7 36.5001 91.7 37.3001C91.7 38.2001 92.3 38.5001 93.8 39.0001C95.3 39.6001 96.2 40.1001 96.2 41.6001C96.1 43.0001 95.2 44.6001 93.4 44.6001Z" fill="#14A096"/>
</g>
<defs>
<clipPath id="clip0">
<rect width="130.6" height="44.6" fill="white"/>
</clipPath>
</defs>
</svg>
