<svg width="117" height="108" viewBox="0 0 117 108" fill="none" xmlns="http://www.w3.org/2000/svg">
<g clip-path="url(#clip0)">
<path d="M6.95362 76.3795L4.3683 84.1616H9.53894L6.95362 76.3795ZM9.18234 90.3337V89.8864H11.2328L11.3219 89.797L9.62809 84.6983H4.19L2.76362 88.813C2.49617 89.7075 2.49617 89.797 2.58532 89.797H4.5466V90.2442H0V89.797H1.78298C1.96128 89.797 2.05043 89.7075 2.31787 88.813L7.75596 72.6226H8.2017L14.1747 89.7075C14.1747 89.7075 14.2638 89.797 14.353 89.797H16.3143V90.2442H9.18234V90.3337Z" fill="white"/>
<path d="M34.144 90.3338H22.3764C22.2872 90.3338 22.2872 90.2443 22.3764 90.1549L31.113 73.6066L31.0238 73.5172H27.8145C24.7834 73.5172 23.5353 75.664 23.5353 78.4369H23.0896V73.0699L23.1787 72.9805H34.0549C34.144 72.9805 34.144 73.0699 34.0549 73.1594L25.3183 89.7076C25.3183 89.7076 25.3183 89.7971 25.4074 89.7971H29.33C32.3611 89.7971 33.6983 87.5608 33.6983 84.7879H34.144V90.3338Z" fill="white"/>
<path d="M54.6483 73.4276C54.5592 73.4276 54.5592 73.4276 54.5592 73.5171V85.1456C54.5592 88.5447 52.8653 90.6915 49.1211 90.6915C45.7334 90.6915 43.3264 88.9025 43.3264 85.235V73.6065C43.3264 73.5171 43.2372 73.5171 43.2372 73.5171H41.276V73.0698H48.1404V73.5171H46.1792C46.09 73.5171 46.0009 73.5171 46.0009 73.6065V85.3245C46.0009 88.6341 47.249 90.0653 49.7451 90.0653C52.7762 90.0653 54.1134 88.0974 54.1134 85.235V73.6065C54.1134 73.5171 54.1134 73.5171 54.0243 73.5171H52.2413V73.0698H56.6987V73.5171H54.6483V73.4276Z" fill="white"/>
<path d="M69.4471 73.4276H68.0207C67.9315 73.4276 67.8424 73.4276 67.8424 73.5171V81.0309H69.8037C72.0324 81.0309 72.6564 80.4047 72.6564 77.274C72.7456 74.2327 71.5866 73.4276 69.4471 73.4276ZM76.8464 90.7809C74.9743 90.7809 73.3696 89.5286 73.3696 86.0401V84.43C73.3696 82.2832 71.9432 81.5676 69.8928 81.5676H67.9315V89.797C67.9315 89.8864 68.0207 89.8864 68.1098 89.8864H70.4277V90.3337H63.1175V89.8864H65.0788C65.1679 89.8864 65.2571 89.8864 65.2571 89.797V73.6065C65.2571 73.5171 65.1679 73.5171 65.0788 73.5171H63.1175V73.0698H70.0711C73.4588 73.0698 75.5092 74.9483 75.5092 77.3634C75.5092 79.5997 73.3696 81.3887 70.9626 81.3887C74.4394 81.3887 76.1332 83.3566 76.1332 86.1295V88.2763C76.1332 89.5286 76.6681 90.0653 77.5596 90.0653C78.1837 90.0653 78.4511 89.9759 78.7186 89.6181L78.986 89.9759C78.4511 90.3337 77.8271 90.7809 76.8464 90.7809Z" fill="white"/>
<path d="M89.0598 71.549V71.1017C92.5366 70.2967 92.2692 67.2554 93.6064 67.2554C94.0522 67.2554 94.4088 67.6132 94.4088 68.0604C94.4088 68.9549 93.5173 70.4756 89.0598 71.549ZM96.7266 90.3335H83.8892V89.8862H85.8504C85.9396 89.8862 86.0287 89.8862 86.0287 89.7968V73.6063C86.0287 73.5169 85.9396 73.5169 85.8504 73.5169H83.8892V73.0696H95.5677L95.6568 73.1591V77.8105H95.2111C95.2111 75.5742 94.1413 73.6063 91.2885 73.6063H88.8815C88.7032 73.6063 88.7032 73.6063 88.7032 73.6958V81.299H89.4164C91.2885 81.299 92.2692 80.2256 92.2692 78.5261H92.7149V84.6087H92.2692C92.2692 82.9091 91.2885 81.8357 89.4164 81.8357H88.7032V89.8862C88.7032 89.9757 88.7924 89.9757 88.8815 89.9757H91.3777C95.1219 89.9757 96.37 87.8289 96.37 85.3243H96.8158L96.7266 90.3335Z" fill="white"/>
<path d="M116.339 90.3337H103.502V89.8864H105.463C105.552 89.8864 105.642 89.8864 105.642 89.797V73.6065C105.642 73.5171 105.552 73.5171 105.463 73.5171H103.502V73.0698H115.18L115.27 73.1593V77.8107H114.824C114.824 75.5744 113.754 73.6065 110.901 73.6065H108.494C108.316 73.6065 108.316 73.6065 108.316 73.696V81.2992H109.029C110.901 81.2992 111.882 80.2258 111.882 78.5263H112.328V84.6089H111.882C111.882 82.9093 110.901 81.8359 109.029 81.8359H108.316V89.8864C108.316 89.9759 108.405 89.9759 108.494 89.9759H110.99C114.735 89.9759 115.983 87.8291 115.983 85.3245H116.429L116.339 90.3337Z" fill="white"/>
<path d="M39.8496 107.15C39.8496 107.061 39.6713 106.792 39.4039 106.792C38.9581 106.792 38.1558 107.15 37.5317 107.15C35.5705 107.15 34.1441 105.272 34.1441 103.125C34.1441 100.978 35.5705 99.0996 37.5317 99.0996C38.0666 99.0996 38.6907 99.368 39.2256 99.368C39.493 99.368 39.6713 99.1891 39.7605 99.0996H40.0279V101.783H39.7605C39.7605 100.71 38.6015 99.368 37.6209 99.368C37.1751 99.368 36.9077 99.4574 36.5511 99.7258C36.1054 100.262 35.9271 101.336 35.9271 103.125C35.9271 104.914 36.1054 105.987 36.5511 106.524C36.8185 106.882 37.1751 106.882 37.6209 106.882C38.869 106.882 39.9388 105.451 39.9388 104.019H40.1171V107.061H39.8496V107.15Z" fill="white"/>
<path d="M45.7334 101.157L44.6636 104.288H46.7141L45.7334 101.157ZM46.5358 106.971V106.703H47.4273L46.7141 104.556H44.5745L43.9505 106.256C43.8613 106.613 43.8613 106.703 43.8613 106.703H44.7528V106.971H42.6132V106.703H43.4156C43.5047 106.703 43.5047 106.703 43.683 106.256L46.09 99.0996H46.3575L49.032 106.703H49.1211H50.0126V106.971H46.5358Z" fill="white"/>
<path d="M58.3926 99.5471L58.3034 107.15H58.036L53.4002 99.726V106.703H54.2917V106.971H52.063V106.703H52.9545H53.0436V99.6365H52.9545H52.063V99.3682H54.6483C54.7375 99.3682 54.8266 99.3682 54.8266 99.5471L57.8577 104.467V99.6365H57.7685H56.877V99.3682H59.1058V99.6365H58.3926V99.5471Z" fill="white"/>
<path d="M68.1098 99.5472L68.0207 107.15H67.7532L63.1175 99.7261V106.703H64.009V106.972H61.7802V106.703H62.6717H62.7609V99.6366H62.6717H61.7802V99.3683H64.3656C64.4547 99.3683 64.5439 99.3683 64.5439 99.5472L67.7532 104.377V99.5472H67.6641H66.7726V99.2788H69.0013V99.5472H68.1098Z" fill="white"/>
<path d="M77.7379 106.971H71.6758V106.703H72.5673H72.6564V99.6365H72.5673H71.6758V99.3682H77.203H77.2922V101.783H77.0247C77.0247 100.799 76.4898 99.6365 75.2417 99.6365H74.2611H74.1719V102.946H74.3503C75.1526 102.946 75.5983 102.231 75.5983 101.426H75.7766V104.646H75.5092C75.5092 103.93 75.1526 103.125 74.2611 103.125H74.0828V106.614H74.1719H75.1526C76.8464 106.614 77.4705 105.361 77.4705 104.198H77.7379V106.971Z" fill="white"/>
<path d="M83.2652 107.15C82.552 107.15 81.9279 106.703 81.5713 106.703C81.3039 106.703 81.0364 106.882 81.0364 107.15H80.769V104.467H81.0364C81.0364 105.361 81.9279 106.971 83.2652 106.971C84.4241 106.971 84.8698 106.345 84.8698 105.629C84.8698 104.556 84.2458 104.467 82.6411 103.84C81.6605 103.483 80.9473 102.946 80.9473 101.604C80.9473 100.173 81.9279 99.0996 82.9086 99.0996C83.6217 99.0996 83.6218 99.368 84.1566 99.368C84.4241 99.368 84.5132 99.1891 84.6024 99.0996H84.8698V101.246H84.6915C84.6915 100.173 83.9783 99.368 82.9977 99.368C82.1954 99.368 81.7496 99.9047 81.7496 100.62C81.7496 101.425 82.2845 101.694 83.6218 102.141C84.959 102.678 85.7613 103.125 85.7613 104.467C85.6722 105.719 84.8698 107.15 83.2652 107.15Z" fill="white"/>
<path d="M72.2107 59.6523L56.6096 13.9433L59.9972 2.94094L79.61 59.6523H72.2107ZM80.5015 59.6523L60.2647 0.615234H59.3732L41.3651 54.7325C39.7604 59.4734 38.6906 59.6523 36.1053 59.6523H33.4308V60.994H50.6366V59.6523H46.2683C43.5938 59.6523 42.6132 58.7578 42.6132 57.5949C42.6132 56.1637 43.3264 54.1958 43.8613 52.4963L55.9855 15.1956H56.1638L71.1409 59.6523H62.9392V60.994H87.4551V59.6523H80.5015Z" fill="white"/>
<path d="M72.6564 58.7579C72.4781 58.7579 72.3889 58.6684 72.3889 58.4895C72.3889 58.3106 72.4781 58.2212 72.6564 58.2212H78.2728C78.4511 58.2212 78.5402 58.3106 78.5402 58.4895C78.5402 58.6684 78.4511 58.7579 78.2728 58.7579H72.6564Z" fill="white"/>
<path d="M72.2998 57.5054C72.1215 57.5054 72.0324 57.416 72.0324 57.2371C72.0324 57.0582 72.1215 56.9688 72.2998 56.9688H77.9162C78.0945 56.9688 78.1837 57.0582 78.1837 57.2371C78.1837 57.416 78.0945 57.5054 77.9162 57.5054H72.2998Z" fill="white"/>
<path d="M71.8541 56.253C71.6758 56.253 71.5866 56.1636 71.5866 55.9847C71.5866 55.8058 71.6758 55.7163 71.8541 55.7163H77.4705C77.6488 55.7163 77.7379 55.8058 77.7379 55.9847C77.7379 56.1636 77.6488 56.253 77.4705 56.253H71.8541Z" fill="white"/>
<path d="M71.4083 55.001C71.23 55.001 71.1409 54.9116 71.1409 54.7327C71.1409 54.5538 71.23 54.4644 71.4083 54.4644H77.0247C77.203 54.4644 77.2922 54.5538 77.2922 54.7327C77.2922 54.9116 77.203 55.001 77.0247 55.001H71.4083Z" fill="white"/>
<path d="M70.9626 53.7486C70.7843 53.7486 70.6951 53.6592 70.6951 53.4803C70.6951 53.3014 70.7843 53.2119 70.9626 53.2119H76.579C76.7573 53.2119 76.8464 53.3014 76.8464 53.4803C76.8464 53.6592 76.7573 53.7486 76.579 53.7486H70.9626Z" fill="white"/>
<path d="M70.5168 52.4962C70.3385 52.4962 70.2494 52.4067 70.2494 52.2278C70.2494 52.0489 70.3385 51.9595 70.5168 51.9595H76.1332C76.3115 51.9595 76.4007 52.0489 76.4007 52.2278C76.4007 52.4067 76.3115 52.4962 76.1332 52.4962H70.5168Z" fill="white"/>
<path d="M70.1602 51.2442C69.9819 51.2442 69.8928 51.1548 69.8928 50.9759C69.8928 50.797 69.9819 50.7075 70.1602 50.7075H75.7766C75.9549 50.7075 76.0441 50.797 76.0441 50.9759C76.0441 51.1548 75.9549 51.2442 75.7766 51.2442H70.1602Z" fill="white"/>
<path d="M69.7145 49.9918C69.5362 49.9918 69.4471 49.9023 69.4471 49.7234C69.4471 49.5445 69.5362 49.4551 69.7145 49.4551H75.3309C75.5092 49.4551 75.5983 49.5445 75.5983 49.7234C75.5983 49.9023 75.5092 49.9918 75.3309 49.9918H69.7145Z" fill="white"/>
<path d="M69.2688 48.7393C69.0905 48.7393 69.0013 48.6499 69.0013 48.471C69.0013 48.2921 69.0905 48.2026 69.2688 48.2026H74.8851C75.0634 48.2026 75.1526 48.2921 75.1526 48.471C75.1526 48.6499 75.0634 48.7393 74.8851 48.7393H69.2688Z" fill="white"/>
<path d="M68.823 47.4869C68.6447 47.4869 68.5556 47.3974 68.5556 47.2185C68.5556 47.0396 68.6447 46.9502 68.823 46.9502H74.4394C74.6177 46.9502 74.7069 47.0396 74.7069 47.2185C74.7069 47.3974 74.6177 47.4869 74.4394 47.4869H68.823Z" fill="white"/>
<path d="M68.3773 46.2349C68.199 46.2349 68.1098 46.1455 68.1098 45.9666C68.1098 45.7877 68.199 45.6982 68.3773 45.6982H73.9937C74.172 45.6982 74.2611 45.7877 74.2611 45.9666C74.2611 46.1455 74.172 46.2349 73.9937 46.2349H68.3773Z" fill="white"/>
<path d="M68.0207 44.9825C67.8424 44.9825 67.7532 44.893 67.7532 44.7141C67.7532 44.5352 67.8424 44.4458 68.0207 44.4458H73.637C73.8153 44.4458 73.9045 44.5352 73.9045 44.7141C73.9045 44.893 73.8153 44.9825 73.637 44.9825H68.0207Z" fill="white"/>
<path d="M67.5749 43.7301C67.3966 43.7301 67.3075 43.6406 67.3075 43.4617C67.3075 43.2828 67.3966 43.1934 67.5749 43.1934H73.1913C73.3696 43.1934 73.4587 43.2828 73.4587 43.4617C73.4587 43.6406 73.3696 43.7301 73.1913 43.7301H67.5749Z" fill="white"/>
<path d="M67.1292 42.4781C66.9509 42.4781 66.8617 42.3887 66.8617 42.2098C66.8617 42.0309 66.9509 41.9414 67.1292 41.9414H72.7456C72.9239 41.9414 73.013 42.0309 73.013 42.2098C73.013 42.3887 72.9239 42.4781 72.7456 42.4781H67.1292Z" fill="white"/>
<path d="M66.6834 41.2257C66.5051 41.2257 66.416 41.1362 66.416 40.9573C66.416 40.7784 66.5051 40.689 66.6834 40.689H72.2998C72.4781 40.689 72.5673 40.7784 72.5673 40.9573C72.5673 41.1362 72.4781 41.2257 72.2998 41.2257H66.6834Z" fill="white"/>
<path d="M66.2377 39.9732C66.0594 39.9732 65.9702 39.8838 65.9702 39.7049C65.9702 39.526 66.0594 39.4365 66.2377 39.4365H71.8541C72.0324 39.4365 72.1215 39.526 72.1215 39.7049C72.1215 39.8838 72.0324 39.9732 71.8541 39.9732H66.2377Z" fill="white"/>
<path d="M65.7919 38.7208C65.6136 38.7208 65.5245 38.6313 65.5245 38.4524C65.5245 38.2735 65.6136 38.1841 65.7919 38.1841H71.4083C71.5866 38.1841 71.6758 38.2735 71.6758 38.4524C71.6758 38.6313 71.5866 38.7208 71.4083 38.7208H65.7919Z" fill="white"/>
<path d="M65.4354 37.379C65.2571 37.379 65.1679 37.2895 65.1679 37.1106C65.1679 36.9317 65.2571 36.8423 65.4354 36.8423H71.0517C71.23 36.8423 71.3192 36.9317 71.3192 37.1106C71.3192 37.2895 71.23 37.379 71.0517 37.379H65.4354Z" fill="white"/>
<path d="M64.9896 36.127C64.8113 36.127 64.7221 36.0376 64.7221 35.8587C64.7221 35.6798 64.8113 35.5903 64.9896 35.5903H70.606C70.7843 35.5903 70.8734 35.6798 70.8734 35.8587C70.8734 36.0376 70.7843 36.127 70.606 36.127H64.9896Z" fill="white"/>
<path d="M64.5438 34.8746C64.3655 34.8746 64.2764 34.7851 64.2764 34.6062C64.2764 34.4273 64.3655 34.3379 64.5438 34.3379H70.1602C70.3385 34.3379 70.4277 34.4273 70.4277 34.6062C70.4277 34.7851 70.3385 34.8746 70.1602 34.8746H64.5438Z" fill="white"/>
<path d="M64.0981 33.6221C63.9198 33.6221 63.8307 33.5327 63.8307 33.3538C63.8307 33.1749 63.9198 33.0854 64.0981 33.0854H69.7145C69.8928 33.0854 69.9819 33.1749 69.9819 33.3538C69.9819 33.5327 69.8928 33.6221 69.7145 33.6221H64.0981Z" fill="white"/>
<path d="M63.6524 32.3702C63.4741 32.3702 63.3849 32.2807 63.3849 32.1018C63.3849 31.9229 63.4741 31.8335 63.6524 31.8335H69.2688C69.4471 31.8335 69.5362 31.9229 69.5362 32.1018C69.5362 32.2807 69.4471 32.3702 69.2688 32.3702H63.6524Z" fill="white"/>
<path d="M63.2958 31.1178C63.1175 31.1178 63.0283 31.0283 63.0283 30.8494C63.0283 30.6705 63.1175 30.5811 63.2958 30.5811H68.9122C69.0905 30.5811 69.1796 30.6705 69.1796 30.8494C69.1796 31.0283 69.0905 31.1178 68.9122 31.1178H63.2958Z" fill="white"/>
<path d="M62.85 29.8653C62.6717 29.8653 62.5826 29.7759 62.5826 29.597C62.5826 29.4181 62.6717 29.3286 62.85 29.3286H68.4664C68.6447 29.3286 68.7339 29.4181 68.7339 29.597C68.7339 29.7759 68.6447 29.8653 68.4664 29.8653H62.85Z" fill="white"/>
<path d="M62.4043 28.6134C62.226 28.6134 62.1368 28.5239 62.1368 28.345C62.1368 28.1661 62.226 28.0767 62.4043 28.0767H68.0206C68.1989 28.0767 68.2881 28.1661 68.2881 28.345C68.2881 28.5239 68.1989 28.6134 68.0206 28.6134H62.4043Z" fill="white"/>
<path d="M61.9585 27.3609C61.7802 27.3609 61.6911 27.2715 61.6911 27.0926C61.6911 26.9137 61.7802 26.8242 61.9585 26.8242H67.5749C67.7532 26.8242 67.8424 26.9137 67.8424 27.0926C67.8424 27.2715 67.7532 27.3609 67.5749 27.3609H61.9585Z" fill="white"/>
<path d="M61.5128 26.1085C61.3345 26.1085 61.2453 26.019 61.2453 25.8401C61.2453 25.6612 61.3345 25.5718 61.5128 25.5718H67.1292C67.3075 25.5718 67.3966 25.6612 67.3966 25.8401C67.3966 26.019 67.3075 26.1085 67.1292 26.1085H61.5128Z" fill="white"/>
<path d="M61.1562 24.856C60.9779 24.856 60.8888 24.7666 60.8888 24.5877C60.8888 24.4088 60.9779 24.3193 61.1562 24.3193H66.7726C66.9509 24.3193 67.04 24.4088 67.04 24.5877C67.04 24.7666 66.9509 24.856 66.7726 24.856H61.1562Z" fill="white"/>
<path d="M60.7104 23.6041C60.5321 23.6041 60.443 23.5146 60.443 23.3357C60.443 23.1568 60.5321 23.0674 60.7104 23.0674H66.3268C66.5051 23.0674 66.5943 23.1568 66.5943 23.3357C66.5943 23.5146 66.5051 23.6041 66.3268 23.6041H60.7104Z" fill="white"/>
<path d="M60.2647 22.3516C60.0864 22.3516 59.9973 22.2622 59.9973 22.0833C59.9973 21.9044 60.0864 21.8149 60.2647 21.8149H65.8811C66.0594 21.8149 66.1485 21.9044 66.1485 22.0833C66.1485 22.2622 66.0594 22.3516 65.8811 22.3516H60.2647Z" fill="white"/>
<path d="M59.819 21.0992C59.6407 21.0992 59.5515 21.0098 59.5515 20.8309C59.5515 20.652 59.6407 20.5625 59.819 20.5625H65.4353C65.6136 20.5625 65.7028 20.652 65.7028 20.8309C65.7028 21.0098 65.6136 21.0992 65.4353 21.0992H59.819Z" fill="white"/>
<path d="M59.3732 19.8468C59.1949 19.8468 59.1058 19.7573 59.1058 19.5784C59.1058 19.3995 59.1949 19.3101 59.3732 19.3101H64.9896C65.1679 19.3101 65.2571 19.3995 65.2571 19.5784C65.2571 19.7573 65.1679 19.8468 64.9896 19.8468H59.3732Z" fill="white"/>
<path d="M58.9275 18.5948C58.7492 18.5948 58.66 18.5054 58.66 18.3265C58.66 18.1476 58.7492 18.0581 58.9275 18.0581H64.5439C64.7222 18.0581 64.8113 18.1476 64.8113 18.3265C64.8113 18.5054 64.7222 18.5948 64.5439 18.5948H58.9275Z" fill="white"/>
<path d="M58.5709 17.3424C58.3926 17.3424 58.3034 17.2529 58.3034 17.074C58.3034 16.8951 58.3926 16.8057 58.5709 16.8057H64.1873C64.3656 16.8057 64.4547 16.8951 64.4547 17.074C64.4547 17.2529 64.3656 17.3424 64.1873 17.3424H58.5709Z" fill="white"/>
<path d="M58.1251 16.0006C57.9468 16.0006 57.8577 15.9111 57.8577 15.7322C57.8577 15.5533 57.9468 15.4639 58.1251 15.4639H63.7415C63.9198 15.4639 64.009 15.5533 64.009 15.7322C64.009 15.9111 63.9198 16.0006 63.7415 16.0006H58.1251Z" fill="white"/>
<path d="M57.6794 14.7481C57.5011 14.7481 57.4119 14.6587 57.4119 14.4798C57.4119 14.3009 57.5011 14.2114 57.6794 14.2114H63.2958C63.4741 14.2114 63.5632 14.3009 63.5632 14.4798C63.5632 14.6587 63.4741 14.7481 63.2958 14.7481H57.6794Z" fill="white"/>
<path d="M57.5011 13.4962C57.3228 13.4962 57.2336 13.4067 57.2336 13.2278C57.2336 13.0489 57.3228 12.9595 57.5011 12.9595H62.85C63.0283 12.9595 63.1175 13.0489 63.1175 13.2278C63.1175 13.4067 63.0283 13.4962 62.85 13.4962H57.5011Z" fill="white"/>
<path d="M57.9468 12.2437C57.7685 12.2437 57.6794 12.1543 57.6794 11.9754C57.6794 11.7965 57.7685 11.707 57.9468 11.707H62.4043C62.5826 11.707 62.6717 11.7965 62.6717 11.9754C62.6717 12.1543 62.5826 12.2437 62.4043 12.2437H57.9468Z" fill="white"/>
<path d="M58.3034 10.9913C58.1251 10.9913 58.036 10.9018 58.036 10.7229C58.036 10.544 58.1251 10.4546 58.3034 10.4546H62.0477C62.226 10.4546 62.3151 10.544 62.3151 10.7229C62.3151 10.9018 62.226 10.9913 62.0477 10.9913H58.3034Z" fill="white"/>
<path d="M58.5709 9.73934C58.3926 9.73934 58.3034 9.64989 58.3034 9.47099C58.3034 9.29209 58.3926 9.20264 58.5709 9.20264H61.6019C61.7802 9.20264 61.8694 9.29209 61.8694 9.47099C61.8694 9.64989 61.7802 9.73934 61.6019 9.73934H58.5709Z" fill="white"/>
<path d="M58.9275 8.4869C58.7492 8.4869 58.66 8.39745 58.66 8.21855C58.66 8.03965 58.7492 7.9502 58.9275 7.9502H61.067C61.2453 7.9502 61.3345 8.03965 61.3345 8.21855C61.3345 8.39745 61.2453 8.4869 61.067 8.4869H58.9275Z" fill="white"/>
<path d="M59.2841 7.23445C59.1058 7.23445 59.0166 7.145 59.0166 6.9661C59.0166 6.7872 59.1058 6.69775 59.2841 6.69775H60.7104C60.8887 6.69775 60.9779 6.7872 60.9779 6.9661C60.9779 7.145 60.8887 7.23445 60.7104 7.23445H59.2841Z" fill="white"/>
<path d="M59.7298 5.89266C59.5515 5.89266 59.4623 5.80321 59.4623 5.62431C59.4623 5.44541 59.5515 5.35596 59.7298 5.35596H60.1755C60.3538 5.35596 60.443 5.44541 60.443 5.62431C60.443 5.80321 60.3538 5.89266 60.1755 5.89266H59.7298Z" fill="white"/>
</g>
<defs>
<clipPath id="clip0">
<rect width="116.429" height="106.535" fill="white" transform="translate(0 0.615234)"/>
</clipPath>
</defs>
</svg>
