<svg width="72" height="34" viewBox="0 0 72 34" fill="none" xmlns="http://www.w3.org/2000/svg">
<g clip-path="url(#clip0)">
<path d="M0.0766969 18.1896C0.0576463 18.3047 0.0195528 18.4199 0.00050219 18.5542C0.800505 18.7269 1.60051 18.8995 2.4005 19.0722C2.38146 19.149 2.36241 19.2257 2.34336 19.3025C1.94336 19.2641 1.54336 19.2065 0.990981 19.149C1.16241 19.456 1.25765 19.6095 1.35289 19.7822C1.04812 19.8589 0.819556 19.9165 0.61003 19.9549C0.724318 20.6264 0.724318 21.2788 0.971938 21.816C1.12431 22.1614 1.61955 22.5643 1.96241 22.5643C3.08622 22.5643 4.22908 22.3916 5.35289 22.3149C5.6767 22.2957 6.01955 22.3533 6.36241 22.3725C6.36241 22.43 6.36241 22.5068 6.36241 22.5643C4.91479 22.7562 3.48622 22.9481 2.0386 23.1208C2.05765 23.2551 2.0767 23.4086 2.09574 23.5429C3.48622 23.447 4.87669 23.3702 6.28622 23.2743C6.28622 23.351 6.30527 23.4278 6.30527 23.5045C5.08622 23.7156 3.86717 23.9075 2.64812 24.1185C2.66717 24.2528 2.66717 24.3679 2.68623 24.5023C4.21003 24.3296 5.73384 24.1569 7.25765 24.0034C7.2767 24.0993 7.27669 24.1953 7.29575 24.2912C6.0386 24.5406 4.76241 24.7901 3.50526 25.0395C3.52431 25.193 3.56241 25.3273 3.58146 25.4808C5.6767 25.3081 7.79098 25.1354 9.88622 24.9628C9.88622 25.0203 9.90527 25.0779 9.90527 25.1163C8.55289 25.5192 7.20051 25.9221 5.82908 26.3251C6.49574 26.728 7.01003 27.0734 7.56242 27.3612C7.69575 27.4379 7.92432 27.3996 8.09574 27.3804C8.45765 27.342 8.81956 27.2844 9.2386 27.2269C9.01003 27.4187 8.81955 27.5722 8.62908 27.7449C8.66717 27.8409 8.70527 27.9368 8.74336 28.0327C9.69574 27.86 10.6481 27.6874 11.6005 27.5339C11.6196 27.5914 11.6196 27.6298 11.6386 27.6874C11.1243 27.8409 10.61 28.0135 10.0576 28.1862C10.4767 28.5316 10.7624 28.781 11.1434 29.1072C11.5624 29.0113 12.1529 28.877 12.7434 28.7427C12.7624 28.781 12.7815 28.8386 12.8005 28.877C12.6291 29.0113 12.4386 29.1456 12.0386 29.4526C13.01 29.4526 13.7338 29.5677 14.4005 29.4334C16.0005 29.1072 17.6005 28.6467 19.1815 28.263C19.3529 28.2246 19.5434 28.263 19.7338 28.263C19.1434 28.6851 18.5338 28.9154 17.9434 29.184C17.391 29.4142 16.8386 29.6828 16.2862 29.9323C17.0291 30.2393 17.6576 30.3352 18.2672 30.5079C19.4481 30.8341 20.4386 30.2777 21.4672 29.8939C22.2862 29.5869 23.1053 29.2607 23.9243 28.9345C23.9624 29.0305 24.0005 29.1264 24.0386 29.2224C22.7243 29.8747 21.4291 30.5271 20.1148 31.1795C20.1338 31.2562 20.1719 31.3521 20.191 31.4289C20.9148 31.237 21.6386 31.0452 22.3624 30.8533C22.3815 30.8917 22.3815 30.9492 22.4005 30.9876C22.1148 31.1986 21.8481 31.3905 21.5624 31.6016C21.6196 31.7167 21.6767 31.8318 21.7148 31.947C22.8196 31.5248 23.9243 31.1027 25.2577 30.5847C24.6862 31.0452 24.3243 31.333 23.9624 31.64C24.0005 31.6975 24.0386 31.7551 24.0767 31.8126C26.1719 30.8341 28.2672 29.8747 30.3434 28.8962C30.4005 28.9921 30.4386 29.088 30.4958 29.184C28.9148 30.1433 27.3338 31.1027 25.7529 32.0621C25.81 32.1772 25.8862 32.3115 25.9434 32.4266C26.8196 32.0237 27.6958 31.6016 28.5719 31.1986C28.591 31.2562 28.6291 31.2946 28.6481 31.3521C28.21 31.6783 27.7719 32.0237 27.3338 32.3499C27.391 32.4458 27.4481 32.5418 27.5243 32.6377C28.7434 31.9661 29.9815 31.3138 31.2005 30.6422C31.2386 30.6998 31.2767 30.7765 31.2958 30.8341C30.5148 31.3905 29.7529 31.9278 28.9719 32.4842C29.0291 32.561 29.0862 32.6185 29.1434 32.6953C29.7529 32.561 30.4577 32.5801 30.9719 32.2923C34.3624 30.3544 37.7338 28.4165 41.1053 26.5169C41.5815 26.2483 42.0196 25.9605 42.4767 25.6727C42.5529 25.7878 42.6291 25.9029 42.7053 26.0181C39.4481 28.4357 36.191 30.8725 32.9338 33.2901C32.9529 33.3476 32.9719 33.386 32.9719 33.4436C33.5434 33.1941 34.0958 32.9639 34.6862 32.7144C34.7434 32.9255 34.8005 33.079 34.8767 33.3476C36.8196 32.1772 38.7053 31.026 40.591 29.8747C40.6291 29.9323 40.6672 29.9898 40.7053 30.0474C39.2767 31.237 37.8481 32.4458 36.4196 33.6354C36.4767 33.7314 36.5529 33.8273 36.61 33.9233C37.41 33.4244 38.21 32.9063 39.0672 32.3691C38.9338 32.6953 38.8577 32.9255 38.7624 33.1558C38.8386 33.2325 38.9148 33.2901 38.991 33.3668C40.7434 32.0237 42.5148 30.6806 44.2672 29.3375C44.3243 29.395 44.3624 29.4718 44.4196 29.5293C43.1815 30.6998 41.9434 31.851 40.7053 33.0214C40.8005 33.1174 40.8958 33.2133 40.9719 33.3093C46.21 29.3183 50.8577 24.5982 55.9815 20.4921C56.0577 20.5688 56.1148 20.6264 56.191 20.7032C52.0005 25.0587 47.7719 29.395 43.5243 33.7314C43.6005 33.8273 43.6767 33.9041 43.7719 34C45.8481 32.254 47.9053 30.4887 49.9815 28.7427C50.0386 28.8002 50.0767 28.8578 50.1338 28.9153C48.9339 30.2009 47.7339 31.4865 46.5339 32.7528C46.61 32.8296 46.6862 32.9063 46.7624 32.9831C49.1815 31.1027 51.2386 28.8386 53.3148 26.5553C53.391 26.6321 53.4672 26.7088 53.5434 26.7856C52.0005 28.7619 50.4577 30.7381 48.8958 32.7336C49.01 32.8296 49.1243 32.9255 49.2386 33.0214C51.81 30.1817 54.3624 27.342 56.9339 24.5023C56.991 24.5598 57.0481 24.5982 57.1243 24.6558C55.2767 27.1309 53.4291 29.6253 51.6005 32.1005C51.7148 32.1964 51.8291 32.2731 51.9243 32.3691C54.591 29.6445 56.6862 26.4594 59.01 23.447C59.1053 23.5045 59.1815 23.5813 59.2767 23.6388C57.4862 26.3059 55.6958 28.9729 53.9053 31.6208C54.0196 31.6975 54.1339 31.7743 54.2291 31.851C57.6196 27.4187 61.01 22.9673 64.4005 18.535C64.4767 18.5925 64.5339 18.6309 64.61 18.6885C61.6958 22.7946 58.7624 26.9007 56.1529 31.1986C56.2481 31.2754 56.3624 31.333 56.4577 31.4097C58.7053 28.2822 60.9719 25.1546 63.2386 22.0271C63.3148 22.0846 63.391 22.123 63.4672 22.1806C62.8767 23.14 62.2862 24.0993 61.7148 25.0587C61.1434 26.0181 60.5529 26.9582 60.0577 27.956C59.6005 28.877 58.5719 29.5102 58.3815 30.5847C58.5148 30.6614 58.6291 30.7381 58.7624 30.8149C61.3719 26.8815 63.9815 22.9289 66.591 18.9763C66.6862 19.0339 66.7815 19.0914 66.8958 19.149C64.9719 22.5643 63.0481 25.9605 61.1243 29.3567C61.2005 29.395 61.2767 29.4526 61.3339 29.491C61.5434 29.2607 61.81 29.0688 61.9815 28.8194C63.01 27.2652 64.0958 25.7111 65.0481 24.0993C66.4005 21.8352 67.7148 19.5519 68.9529 17.2302C69.5243 16.1749 69.9815 15.0429 70.3815 13.8916C70.8577 12.5293 71.1053 11.0903 71.6577 9.78555C72.21 8.46162 72.1719 7.59818 70.9719 7.02256C68.9148 6.06319 66.7624 5.23814 64.6481 4.37471C64.2672 4.22121 63.8481 4.22121 63.4672 4.06771C61.4672 3.3194 59.5053 2.51353 57.4862 1.84198C56.1148 1.38148 54.6672 1.13204 53.2386 0.80586C52.0577 0.537237 50.8767 0.268614 49.6958 -9.49414e-06C51.7148 1.49661 54.2672 1.6501 56.4196 2.89728C53.7719 2.32166 51.1243 1.74604 48.4767 1.17042C48.4577 1.28554 48.4196 1.40067 48.4005 1.49661C49.0481 1.72685 49.6958 1.97629 50.3434 2.20654C50.3243 2.28329 50.3053 2.36004 50.2672 2.43679C48.3053 1.97629 46.3434 1.51579 44.3624 1.0553C44.3243 1.11286 44.2862 1.17042 44.2672 1.22798C44.5148 1.45823 44.7624 1.68848 45.1815 2.09141C43.9434 1.74604 42.8958 1.47742 41.8672 1.18961C41.8481 1.26636 41.8291 1.3431 41.81 1.41986C42.0577 1.55417 42.3053 1.70767 42.5529 1.84198C42.5338 1.88035 42.5148 1.91873 42.5148 1.97629C42.1529 1.93791 41.7719 1.89954 41.41 1.86117C41.3719 1.97629 41.3529 2.09141 41.3148 2.18735C43.2577 3.06997 45.1815 3.95259 47.1243 4.81602C47.0862 4.91196 47.0291 5.02708 46.991 5.12302C45.1815 4.37471 43.3719 3.6264 41.5624 2.8781C41.5434 2.97403 41.5053 3.10835 41.4672 3.26184C40.8767 2.95485 40.3243 2.66704 39.7529 2.36004C39.6958 2.45598 39.6196 2.55191 39.5624 2.66704C40.1338 3.06997 40.6862 3.4729 41.2577 3.85665C41.2196 3.91421 41.1815 3.99096 41.1624 4.04852C40.1338 3.6264 39.1053 3.22347 38.0767 2.80134C38.0386 2.87809 38.0196 2.97403 37.9815 3.05078C38.4196 3.33859 38.8386 3.6264 39.2767 3.89503C39.2386 3.95259 39.2005 4.01015 39.1624 4.06771C38.4005 3.76071 37.6196 3.45372 36.8577 3.14672C36.8005 3.24266 36.7624 3.31941 36.7053 3.41534C37.2386 3.7799 37.7719 4.14446 38.3053 4.50902C38.2862 4.5474 38.2672 4.58577 38.2481 4.62414C37.2958 4.25959 36.3434 3.89503 35.391 3.53047C35.3338 3.66478 35.2767 3.79909 35.2005 3.9334C36.6862 4.75846 38.1719 5.56433 39.6577 6.38938C39.6196 6.46613 39.5815 6.54288 39.5624 6.61963C37.7148 5.83295 35.8862 5.06546 34.0386 4.27878C34.0005 4.37471 33.9434 4.48984 33.9053 4.58577C36.0005 5.67945 38.0958 6.77313 40.21 7.86681C40.1719 7.94356 40.1338 8.00112 40.0958 8.07787C37.7148 6.98419 35.3148 5.89051 32.9338 4.79683C32.8767 4.89277 32.8196 5.00789 32.7624 5.10383C34.1719 6.00564 35.6005 6.88826 37.01 7.79006C36.3243 7.59819 35.7148 7.29119 35.0672 7.02257C33.5624 6.3702 32.2291 5.21895 30.3243 5.58351C30.6291 5.9097 30.8957 6.2167 31.1815 6.50451C30.5338 6.31264 29.9624 5.9097 29.3529 5.7562C28.8577 5.62189 28.6481 4.48984 27.8481 5.27652C27.6577 5.12302 27.4481 4.96952 27.2386 4.81602C27.1815 4.8544 27.1243 4.89277 27.0862 4.95033C27.2767 5.27652 27.4862 5.6027 27.6767 5.92889C27.6386 5.94807 27.6196 5.96726 27.5815 5.98645C27.2577 5.71783 26.9148 5.44921 26.591 5.18058C26.5338 5.23814 26.4767 5.31489 26.4196 5.37246C26.7624 5.79458 27.1243 6.19751 27.4672 6.61963C26.6481 6.29345 26.1529 5.21896 24.8957 5.81376C25.5815 6.6772 26.2481 7.52144 26.9148 8.3465C26.7815 8.48081 26.6481 8.59593 26.5148 8.73024C25.7148 7.82844 24.9148 6.94582 24.1148 6.04401C24.0767 6.08239 24.0196 6.10158 23.9815 6.13995C24.5338 6.94582 25.0862 7.75169 25.6196 8.53837C25.5815 8.57675 25.5243 8.59593 25.4862 8.63431C24.7243 8.00112 23.9624 7.34875 23.2005 6.71557C23.1243 6.79232 23.0481 6.86907 22.9529 6.94582C23.6957 8.05869 24.4577 9.15237 25.3148 10.4187C23.9624 9.32505 22.7624 8.38487 21.5815 7.4255C21.5053 7.50225 21.4291 7.59819 21.3529 7.67494C21.81 8.23137 22.2672 8.78781 22.7434 9.34424C22.6862 9.4018 22.6291 9.45936 22.5719 9.49774C21.9053 8.92212 21.2577 8.3465 20.591 7.77088C20.4957 7.84763 20.4005 7.92438 20.3243 8.02031C21.01 8.82618 21.6957 9.63205 22.3815 10.4379C22.3243 10.4763 22.2862 10.5147 22.2291 10.5722C21.3148 9.72799 20.4005 8.88374 19.4862 8.0395C19.41 8.11625 19.3148 8.21219 19.2386 8.28894C20.3053 9.67042 21.391 11.0519 22.4577 12.4142C22.4196 12.4526 22.3815 12.491 22.3243 12.5293C20.8386 11.2054 19.3338 9.8623 17.8481 8.53837C17.7529 8.63431 17.6577 8.73024 17.5624 8.80699C18.0957 9.53611 18.61 10.2652 19.1434 10.9944C19.1053 11.0327 19.0481 11.0519 19.01 11.0903C18.3434 10.5147 17.6767 9.95824 16.991 9.38262C16.9338 9.44018 16.8577 9.51693 16.8005 9.57449C16.991 9.91986 17.1815 10.246 17.3719 10.5914C17.3338 10.6106 17.2767 10.649 17.2386 10.6682C16.8196 10.3228 16.3815 9.99661 15.9624 9.65124C15.8672 9.74717 15.7719 9.82392 15.6957 9.91986C18.6481 13.93 22.3243 17.307 25.5053 21.1445C23.2005 19.5519 21.6767 17.1535 19.6767 15.2539C17.6386 13.316 15.5624 11.4165 13.2386 9.80474C14.8576 12.6637 17.4862 14.64 19.6196 17.0384C19.5624 17.1151 19.4862 17.1919 19.4291 17.2494C16.8576 15.3115 14.2862 13.3928 11.7148 11.4549C12.191 12.8363 13.6005 13.412 14.2862 14.6208C13.2577 13.8725 12.21 13.1242 11.1815 12.3758C11.0862 12.4718 11.01 12.5869 10.9148 12.6828C11.9243 13.6422 12.9529 14.6016 13.9624 15.5801C13.9243 15.6185 13.8862 15.6761 13.8481 15.7144C12.61 14.7551 11.3719 13.7957 10.1338 12.8363C10.0386 12.9323 9.96241 13.0474 9.86717 13.1433C11.0481 14.2178 12.2291 15.2923 13.41 16.386C13.3719 16.4436 13.3148 16.4819 13.2767 16.5395C11.8862 15.5034 10.5148 14.4673 9.12432 13.4312C9.02908 13.5463 8.93384 13.6806 8.85765 13.7957C10.3624 14.9853 11.8672 16.1749 13.3719 17.3646C11.8862 16.6546 10.5148 15.772 9.14336 14.8894C8.51479 14.4865 7.88622 14.0451 7.02907 14.851C8.72431 15.9639 10.4005 17.0384 12.0576 18.1321C12.0386 18.1704 12.0196 18.1896 12.0005 18.228C9.98146 17.3646 7.96242 16.4819 5.94337 15.6185C5.88622 15.7528 5.81003 15.8871 5.75289 16.0214C7.81003 17.0959 9.88622 18.1896 11.9434 19.2641C11.9053 19.3409 11.8672 19.3984 11.8291 19.4752C9.84813 18.6117 7.84813 17.7483 5.88622 16.8465C5.25765 16.5587 4.95289 16.5971 4.89574 17.307C5.2386 17.5181 5.54336 17.7099 5.82908 17.9018C5.79098 17.9402 5.77193 17.9977 5.73384 18.0361C5.16241 17.921 4.59099 17.8251 4.01955 17.7099C4.00051 17.8251 3.96242 17.9402 3.94337 18.0553C4.70527 18.3431 5.46718 18.6501 6.22908 18.9379C6.21003 18.9955 6.21003 19.053 6.19099 19.0914C4.11479 18.8036 2.09574 18.4966 0.0766969 18.1896ZM64.3053 13.2968C64.2481 13.2009 64.1719 13.105 64.1148 13.009C65.41 12.2415 66.7243 11.4548 68.0196 10.6874C68.0767 10.7833 68.1339 10.8984 68.21 10.9943C66.9148 11.7618 65.6196 12.5293 64.3053 13.2968ZM70.0958 8.99886C68.7243 9.5553 67.7148 8.65349 66.61 8.17381C67.7529 8.44243 68.9148 8.73024 70.0958 8.99886ZM65.4291 8.7878C66.7434 9.17155 68.0767 9.57448 69.5243 9.99661C67.8291 10.4955 66.6862 9.42098 65.3529 8.99886C65.3719 8.9413 65.391 8.86455 65.4291 8.7878ZM67.2958 10.5147C66.6862 11.167 66.6291 11.1478 64.2672 9.53611C65.2577 9.8623 66.2672 10.1885 67.2958 10.5147ZM60.8767 9.47855C62.5529 10.0925 64.2291 10.7257 65.9624 11.3589C65.6577 11.8386 65.3148 12.0113 64.7434 11.7043C63.4481 10.9943 62.1148 10.3228 60.8196 9.63205C60.8196 9.59367 60.8386 9.53611 60.8767 9.47855ZM64.4196 12.1456C64.4196 12.2415 64.4386 12.3183 64.4386 12.4142C64.1529 12.491 63.81 12.702 63.6196 12.6061C62.191 11.9345 60.7815 11.2054 59.4481 10.3036C61.1053 10.9176 62.7624 11.5316 64.4196 12.1456ZM62.7815 12.8939C62.7624 12.9898 62.7243 13.0858 62.7053 13.1625C61.5243 13.5846 61.01 12.2607 60.1148 11.8962C61.01 12.2223 61.8862 12.5485 62.7815 12.8939ZM60.8767 13.7381C60.8767 13.8149 60.8958 13.8916 60.8958 13.9876C60.5719 14.0068 60.21 14.1411 59.9624 14.026C58.5529 13.316 57.1624 12.5485 55.7719 11.781C55.6958 11.7427 55.6577 11.6083 55.4291 11.2822C57.41 12.184 59.1434 12.9706 60.8767 13.7381ZM59.4481 14.4097C59.4291 14.5056 59.41 14.6208 59.391 14.7167C59.0862 14.7167 58.7243 14.8318 58.4958 14.6975C56.9148 13.8533 55.3529 12.9515 53.8672 11.8962C55.7148 12.7404 57.5815 13.5655 59.4481 14.4097ZM57.2577 14.8894C57.4862 15.0045 57.6767 15.2348 57.8672 15.4074C57.2958 15.2731 56.7053 15.1964 56.1719 14.9661C55.4291 14.6399 54.7243 14.1603 54.0005 13.7573C54.0386 13.6806 54.0767 13.6038 54.1148 13.5271C54.4958 13.6998 54.8767 13.8533 55.2577 14.026C55.9434 14.3138 56.61 14.5632 57.2577 14.8894ZM56.0577 15.772C54.6862 16.2709 53.9815 15.1772 53.0862 14.5056C54.0958 14.9278 55.0672 15.3499 56.0577 15.772ZM50.2862 15.5993C51.2196 16.0982 52.1719 16.5779 53.1053 17.0767C52.61 17 52.0958 16.9808 51.6577 16.7889C51.1243 16.5587 50.6672 16.1558 50.1719 15.8296C50.191 15.7528 50.2291 15.6761 50.2862 15.5993ZM46.3815 16.1941C47.41 16.7314 48.4386 17.2878 49.4481 17.8251C49.41 17.921 49.3719 18.0169 49.3338 18.1129C48.0196 18.0937 47.2958 16.9616 46.2672 16.4052C46.3053 16.3476 46.3434 16.2709 46.3815 16.1941ZM41.5243 5.98645C42.7434 6.58126 43.9815 7.17606 45.2005 7.79006C45.1434 7.86681 45.1053 7.96275 45.0481 8.0395C43.8481 7.40631 42.6291 6.79232 41.4291 6.15913C41.4672 6.12076 41.5053 6.04401 41.5243 5.98645ZM44.4196 19.149C43.5053 19.3217 42.591 18.6309 41.41 16.8849C42.3815 17.6332 43.3719 18.3623 44.4196 19.149ZM44.1719 17.6332C44.7815 17.9977 45.41 18.3623 46.21 18.8228C44.8958 19.2641 44.6481 18.2664 44.1719 17.6332ZM47.5815 19.1682C47.5815 19.0722 47.5815 18.9571 47.5815 18.8612C46.7434 18.228 45.8862 17.614 45.0481 16.9808C45.0862 16.9232 45.1243 16.8657 45.1624 16.8081C45.9624 17.2686 46.8767 17.614 47.5434 18.228C48.3053 18.9187 49.01 18.7652 49.791 18.4582C50.0958 18.3239 50.4196 18.228 50.8577 18.0553C49.7719 17.2686 48.7815 16.5587 47.791 15.8488C47.8291 15.772 47.8862 15.7144 47.9243 15.6377C49.1053 16.3093 50.3053 16.9616 51.4862 17.6332C51.4862 17.7675 51.4672 17.921 51.4672 18.0553C52.0577 17.7291 52.6481 17.4221 53.2196 17.0959L53.2005 17.1151C53.5434 17.0959 53.8862 17.0576 54.2291 17.0384C54.2291 16.9616 54.2481 16.8849 54.2481 16.8081C53.8481 16.5587 53.4291 16.3093 53.0291 16.0598C53.0291 15.9447 53.0481 15.8104 53.0481 15.6953C54.8386 17.1343 56.4386 16.8081 57.9243 15.4266L57.9053 15.4458C58.4196 15.2923 58.9529 15.158 59.4481 14.9661C60.8577 14.4097 62.2481 13.8149 63.791 13.1817C62.0767 15.8871 40.9338 21.7968 36.3434 20.8567C40.2672 20.281 43.9243 19.7246 47.5815 19.1682ZM37.4481 20.3002C36.9529 20.0892 36.4005 19.5327 35.6767 18.1321C36.3053 18.8995 36.8767 19.6095 37.4481 20.3002ZM31.3148 21.3555C30.8577 20.6072 30.4005 19.8973 29.9434 19.1874C30.5529 19.8014 31.7148 20.1467 31.3148 21.3555ZM27.8291 18.4199C28.6291 19.36 29.4291 20.3002 30.2481 21.2404C30.1529 21.3172 30.0767 21.3939 29.9815 21.4707C29.2005 20.5113 28.4196 19.5519 27.6386 18.5925C27.7148 18.535 27.7719 18.4774 27.8291 18.4199ZM26.3434 18.9379C27.1624 19.7246 27.9815 20.4921 28.8196 21.2788C28.7434 21.3555 28.6862 21.4323 28.61 21.509C27.8481 20.6648 27.0672 19.8397 26.3053 18.9955C26.3053 18.9571 26.3243 18.9571 26.3434 18.9379ZM12.8767 18.746C13.5243 19.2065 14.191 19.667 14.8386 20.1084C14.7624 20.2043 14.6862 20.3002 14.61 20.3962C13.9815 19.8973 13.3338 19.3984 12.7053 18.9187C12.7815 18.8612 12.8196 18.8036 12.8767 18.746Z" fill="#14A096"/>
</g>
<defs>
<clipPath id="clip0">
<rect width="72" height="34" fill="white" transform="translate(72 34) rotate(180)"/>
</clipPath>
</defs>
</svg>
